<svg width="1712" height="1078" viewBox="0 0 1712 1078" fill="none" xmlns="http://www.w3.org/2000/svg">
<path d="M739.129 2.22858C740.658 2.91146 741.828 3.66569 742.744 4.72771C743.66 5.78959 744.353 7.19487 744.865 9.22747C745.897 13.3222 746.167 19.8221 746.167 30.8386V50.3386H438H129.833V30.4402C129.9 19.5553 130.136 13.3201 131.07 9.40461C131.533 7.46273 132.161 6.1251 133.003 5.08443C133.843 4.04733 134.922 3.27093 136.35 2.49018C136.36 2.48757 136.387 2.4807 136.437 2.47151C136.527 2.4551 136.655 2.43726 136.827 2.4186C137.168 2.38144 137.652 2.34409 138.277 2.3069C139.526 2.2326 141.315 2.16029 143.611 2.09008C148.203 1.94971 154.809 1.81824 163.142 1.69586C179.808 1.4511 203.376 1.24277 231.549 1.07195C287.893 0.730286 362.651 0.53862 437.434 0.505287C512.216 0.471954 587.024 0.596954 643.468 0.888615C671.691 1.03445 695.321 1.22194 712.062 1.45211C720.433 1.56721 727.08 1.69295 731.715 1.82942C734.034 1.89767 735.846 1.96851 737.118 2.04181C737.755 2.07851 738.251 2.11552 738.605 2.15255C738.783 2.17111 738.919 2.18905 739.016 2.20583C739.091 2.21873 739.124 2.22789 739.13 2.22913C739.131 2.22945 739.131 2.22937 739.129 2.22858ZM739.129 2.22858C739.128 2.22771 739.124 2.22601 739.119 2.22359L739.129 2.22858ZM136.377 2.47512L136.373 2.47757C136.374 2.47678 136.376 2.47598 136.377 2.47512ZM640.487 21.0184C641.587 22.1187 642.581 23.4552 643.302 24.7252C644.01 25.9735 644.5 27.2357 644.5 28.172C644.5 29.3053 644.006 30.566 643.255 31.7878C642.499 33.0197 641.452 34.2617 640.276 35.3692C639.1 36.477 637.783 37.4624 636.477 38.1736C635.179 38.8803 633.852 39.3386 632.667 39.3386C631.516 39.3386 630.205 38.8888 628.917 38.2005C627.619 37.5073 626.298 36.5486 625.114 35.4757C623.931 34.4032 622.872 33.2044 622.104 32.0237C621.344 30.8557 620.833 29.6486 620.833 28.572C620.833 26.7543 621.8 24.5506 623.18 22.6606C624.561 20.7673 626.43 19.0868 628.353 18.3724C630.851 17.3603 632.862 16.9523 634.788 17.3665C636.713 17.7801 638.464 18.9951 640.487 21.0184ZM674.766 19.0629C677.891 20.662 679.827 23.2852 680.391 26.2451C680.955 29.2038 680.138 32.4494 677.857 35.284C676.884 36.5342 675.851 37.3975 674.484 37.937C673.131 38.4711 671.49 38.672 669.333 38.672C663.318 38.672 659.373 35.1619 658.315 30.858C657.257 26.5566 659.108 21.5695 664.424 18.6682C666.25 17.6539 667.714 17.1009 669.317 17.1556C670.905 17.2097 672.557 17.858 674.766 19.0629ZM709.434 19.0634C712.558 20.6625 714.494 23.2856 715.058 26.2451C715.621 29.2029 714.805 32.4476 712.526 35.2816C711.552 36.5331 710.518 37.3971 709.15 37.937C707.797 38.4711 706.157 38.672 704 38.672C697.984 38.672 694.04 35.1619 692.981 30.858C691.923 26.5566 693.774 21.5695 699.091 18.6682C700.916 17.6539 702.38 17.1009 703.984 17.1556C705.572 17.2097 707.224 17.8582 709.434 19.0634Z" stroke="black"/>
<mask id="path-2-inside-1_86_68" fill="white">
<path d="M129.333 196.439C129.333 335.905 129.467 339.639 132 343.772C133.733 346.705 135.867 348.305 138.933 348.839C141.333 349.239 277.6 349.372 441.6 349.239L739.867 348.839L742.933 345.772L746 342.705L746.4 198.172L746.667 53.5053H438H129.333V196.439ZM168 108.839C168 109.905 167.067 110.839 166 110.839C164.933 110.839 164 109.905 164 108.839C164 107.772 164.933 106.839 166 106.839C167.067 106.839 168 107.772 168 108.839ZM184 108.839C184 110.172 182.667 110.839 180 110.839C177.333 110.839 176 110.172 176 108.839C176 107.505 177.333 106.839 180 106.839C182.667 106.839 184 107.505 184 108.839ZM200 108.839C200 110.172 198.667 110.839 196 110.839C193.333 110.839 192 110.172 192 108.839C192 107.505 193.333 106.839 196 106.839C198.667 106.839 200 107.505 200 108.839ZM216 108.839C216 110.172 214.667 110.839 212 110.839C209.333 110.839 208 110.172 208 108.839C208 107.505 209.333 106.839 212 106.839C214.667 106.839 216 107.505 216 108.839ZM232 108.839C232 110.172 230.667 110.839 228 110.839C225.333 110.839 224 110.172 224 108.839C224 107.505 225.333 106.839 228 106.839C230.667 106.839 232 107.505 232 108.839ZM248 108.839C248 110.172 246.667 110.839 244 110.839C241.333 110.839 240 110.172 240 108.839C240 107.505 241.333 106.839 244 106.839C246.667 106.839 248 107.505 248 108.839ZM264 108.839C264 110.172 262.667 110.839 260 110.839C257.333 110.839 256 110.172 256 108.839C256 107.505 257.333 106.839 260 106.839C262.667 106.839 264 107.505 264 108.839ZM280 108.839C280 110.172 278.667 110.839 276 110.839C273.333 110.839 272 110.172 272 108.839C272 107.505 273.333 106.839 276 106.839C278.667 106.839 280 107.505 280 108.839ZM296 108.839C296 110.172 294.667 110.839 292 110.839C289.333 110.839 288 110.172 288 108.839C288 107.505 289.333 106.839 292 106.839C294.667 106.839 296 107.505 296 108.839ZM312 108.839C312 110.172 310.667 110.839 308 110.839C305.333 110.839 304 110.172 304 108.839C304 107.505 305.333 106.839 308 106.839C310.667 106.839 312 107.505 312 108.839ZM328 108.839C328 110.172 326.667 110.839 324 110.839C321.333 110.839 320 110.172 320 108.839C320 107.505 321.333 106.839 324 106.839C326.667 106.839 328 107.505 328 108.839ZM344 108.839C344 110.172 342.667 110.839 340 110.839C337.333 110.839 336 110.172 336 108.839C336 107.505 337.333 106.839 340 106.839C342.667 106.839 344 107.505 344 108.839ZM360 108.839C360 110.172 358.667 110.839 356 110.839C353.333 110.839 352 110.172 352 108.839C352 107.505 353.333 106.839 356 106.839C358.667 106.839 360 107.505 360 108.839ZM372 108.839C372 109.905 371.067 110.839 370 110.839C368.933 110.839 368 109.905 368 108.839C368 107.772 368.933 106.839 370 106.839C371.067 106.839 372 107.772 372 108.839ZM724 124.172C724 140.972 723.867 141.505 721.067 142.172C719.333 142.572 646 142.705 558 142.572L398 142.172L397.6 124.439L397.2 106.839H560.667H724V124.172ZM168 122.839C168 125.505 167.333 126.839 166 126.839C164.667 126.839 164 125.505 164 122.839C164 120.172 164.667 118.839 166 118.839C167.333 118.839 168 120.172 168 122.839ZM372 122.839C372 125.505 371.333 126.839 370 126.839C368.667 126.839 368 125.505 368 122.839C368 120.172 368.667 118.839 370 118.839C371.333 118.839 372 120.172 372 122.839ZM168 139.505C168 142.705 167.333 144.172 166 144.172C164.667 144.172 164 142.705 164 139.505C164 136.305 164.667 134.839 166 134.839C167.333 134.839 168 136.305 168 139.505ZM372 139.505C372 142.705 371.333 144.172 370 144.172C368.667 144.172 368 142.705 368 139.505C368 136.305 368.667 134.839 370 134.839C371.333 134.839 372 136.305 372 139.505ZM168 156.172C168 158.839 167.333 160.172 166 160.172C164.667 160.172 164 158.839 164 156.172C164 153.505 164.667 152.172 166 152.172C167.333 152.172 168 153.505 168 156.172ZM372 156.172C372 158.839 371.333 160.172 370 160.172C368.667 160.172 368 158.839 368 156.172C368 153.505 368.667 152.172 370 152.172C371.333 152.172 372 153.505 372 156.172ZM723.333 166.839V176.839H560.667H398L397.6 166.439L397.2 156.172L560.267 156.439L723.333 156.839V166.839ZM168 172.172C168 174.839 167.333 176.172 166 176.172C164.667 176.172 164 174.839 164 172.172C164 169.505 164.667 168.172 166 168.172C167.333 168.172 168 169.505 168 172.172ZM372 172.172C372 174.839 371.333 176.172 370 176.172C368.667 176.172 368 174.839 368 172.172C368 169.505 368.667 168.172 370 168.172C371.333 168.172 372 169.505 372 172.172ZM168 188.172C168 190.839 167.333 192.172 166 192.172C164.667 192.172 164 190.839 164 188.172C164 185.505 164.667 184.172 166 184.172C167.333 184.172 168 185.505 168 188.172ZM372 188.172C372 190.839 371.333 192.172 370 192.172C368.667 192.172 368 190.839 368 188.172C368 185.505 368.667 184.172 370 184.172C371.333 184.172 372 185.505 372 188.172ZM723.733 196.439L724.133 206.839H560.667H397.333V197.105C397.333 191.639 397.733 186.839 398.267 186.439C398.667 185.905 472.133 185.639 561.2 185.772L723.333 186.172L723.733 196.439ZM168 205.505C168 208.172 167.333 209.505 166 209.505C164.667 209.505 164 208.172 164 205.505C164 202.839 164.667 201.505 166 201.505C167.333 201.505 168 202.839 168 205.505ZM372 205.505C372 208.172 371.333 209.505 370 209.505C368.667 209.505 368 208.172 368 205.505C368 202.839 368.667 201.505 370 201.505C371.333 201.505 372 202.839 372 205.505ZM621.867 218.305C623.067 221.372 622.8 233.905 621.6 235.905C620.667 237.239 597.333 237.505 509.2 237.239L398 236.839L397.6 228.305C397.333 223.639 397.467 218.972 397.867 218.039C398.4 216.439 417.467 216.172 509.867 216.172C610 216.172 621.067 216.439 621.867 218.305ZM168 221.505C168 224.172 167.333 225.505 166 225.505C164.667 225.505 164 224.172 164 221.505C164 218.839 164.667 217.505 166 217.505C167.333 217.505 168 218.839 168 221.505ZM372 221.505C372 224.172 371.333 225.505 370 225.505C368.667 225.505 368 224.172 368 221.505C368 218.839 368.667 217.505 370 217.505C371.333 217.505 372 218.839 372 221.505ZM168 237.505C168 240.172 167.333 241.505 166 241.505C164.667 241.505 164 240.172 164 237.505C164 234.839 164.667 233.505 166 233.505C167.333 233.505 168 234.839 168 237.505ZM372 237.505C372 240.172 371.333 241.505 370 241.505C368.667 241.505 368 240.172 368 237.505C368 234.839 368.667 233.505 370 233.505C371.333 233.505 372 234.839 372 237.505ZM168 254.172C168 257.372 167.333 258.839 166 258.839C164.667 258.839 164 257.372 164 254.172C164 250.972 164.667 249.505 166 249.505C167.333 249.505 168 250.972 168 254.172ZM372 254.172C372 257.372 371.333 258.839 370 258.839C368.667 258.839 368 257.372 368 254.172C368 250.972 368.667 249.505 370 249.505C371.333 249.505 372 250.972 372 254.172ZM168 270.839C168 273.505 167.333 274.839 166 274.839C164.667 274.839 164 273.505 164 270.839C164 268.172 164.667 266.839 166 266.839C167.333 266.839 168 268.172 168 270.839ZM372 270.839C372 273.505 371.333 274.839 370 274.839C368.667 274.839 368 273.505 368 270.839C368 268.172 368.667 266.839 370 266.839C371.333 266.839 372 268.172 372 270.839ZM168 284.839C168 285.905 167.067 286.839 166 286.839C164.933 286.839 164 285.905 164 284.839C164 283.772 164.933 282.839 166 282.839C167.067 282.839 168 283.772 168 284.839ZM184 284.839C184 286.172 182.667 286.839 180 286.839C177.333 286.839 176 286.172 176 284.839C176 283.505 177.333 282.839 180 282.839C182.667 282.839 184 283.505 184 284.839ZM200 284.839C200 286.172 198.667 286.839 196 286.839C193.333 286.839 192 286.172 192 284.839C192 283.505 193.333 282.839 196 282.839C198.667 282.839 200 283.505 200 284.839ZM216 284.839C216 286.172 214.667 286.839 212 286.839C209.333 286.839 208 286.172 208 284.839C208 283.505 209.333 282.839 212 282.839C214.667 282.839 216 283.505 216 284.839ZM232 284.839C232 286.172 230.667 286.839 228 286.839C225.333 286.839 224 286.172 224 284.839C224 283.505 225.333 282.839 228 282.839C230.667 282.839 232 283.505 232 284.839ZM248 284.839C248 286.172 246.667 286.839 244 286.839C241.333 286.839 240 286.172 240 284.839C240 283.505 241.333 282.839 244 282.839C246.667 282.839 248 283.505 248 284.839ZM264 284.839C264 286.172 262.667 286.839 260 286.839C257.333 286.839 256 286.172 256 284.839C256 283.505 257.333 282.839 260 282.839C262.667 282.839 264 283.505 264 284.839ZM280 284.839C280 286.172 278.667 286.839 276 286.839C273.333 286.839 272 286.172 272 284.839C272 283.505 273.333 282.839 276 282.839C278.667 282.839 280 283.505 280 284.839ZM296 284.839C296 286.172 294.667 286.839 292 286.839C289.333 286.839 288 286.172 288 284.839C288 283.505 289.333 282.839 292 282.839C294.667 282.839 296 283.505 296 284.839ZM312 284.839C312 286.172 310.667 286.839 308 286.839C305.333 286.839 304 286.172 304 284.839C304 283.505 305.333 282.839 308 282.839C310.667 282.839 312 283.505 312 284.839ZM328 284.839C328 286.172 326.667 286.839 324 286.839C321.333 286.839 320 286.172 320 284.839C320 283.505 321.333 282.839 324 282.839C326.667 282.839 328 283.505 328 284.839ZM344 284.839C344 286.172 342.667 286.839 340 286.839C337.333 286.839 336 286.172 336 284.839C336 283.505 337.333 282.839 340 282.839C342.667 282.839 344 283.505 344 284.839ZM360 284.839C360 286.172 358.667 286.839 356 286.839C353.333 286.839 352 286.172 352 284.839C352 283.505 353.333 282.839 356 282.839C358.667 282.839 360 283.505 360 284.839ZM372 284.839C372 285.905 371.067 286.839 370 286.839C368.933 286.839 368 285.905 368 284.839C368 283.772 368.933 282.839 370 282.839C371.067 282.839 372 283.772 372 284.839Z"/>
</mask>
<path d="M129.333 196.439C129.333 335.905 129.467 339.639 132 343.772C133.733 346.705 135.867 348.305 138.933 348.839C141.333 349.239 277.6 349.372 441.6 349.239L739.867 348.839L742.933 345.772L746 342.705L746.4 198.172L746.667 53.5053H438H129.333V196.439ZM168 108.839C168 109.905 167.067 110.839 166 110.839C164.933 110.839 164 109.905 164 108.839C164 107.772 164.933 106.839 166 106.839C167.067 106.839 168 107.772 168 108.839ZM184 108.839C184 110.172 182.667 110.839 180 110.839C177.333 110.839 176 110.172 176 108.839C176 107.505 177.333 106.839 180 106.839C182.667 106.839 184 107.505 184 108.839ZM200 108.839C200 110.172 198.667 110.839 196 110.839C193.333 110.839 192 110.172 192 108.839C192 107.505 193.333 106.839 196 106.839C198.667 106.839 200 107.505 200 108.839ZM216 108.839C216 110.172 214.667 110.839 212 110.839C209.333 110.839 208 110.172 208 108.839C208 107.505 209.333 106.839 212 106.839C214.667 106.839 216 107.505 216 108.839ZM232 108.839C232 110.172 230.667 110.839 228 110.839C225.333 110.839 224 110.172 224 108.839C224 107.505 225.333 106.839 228 106.839C230.667 106.839 232 107.505 232 108.839ZM248 108.839C248 110.172 246.667 110.839 244 110.839C241.333 110.839 240 110.172 240 108.839C240 107.505 241.333 106.839 244 106.839C246.667 106.839 248 107.505 248 108.839ZM264 108.839C264 110.172 262.667 110.839 260 110.839C257.333 110.839 256 110.172 256 108.839C256 107.505 257.333 106.839 260 106.839C262.667 106.839 264 107.505 264 108.839ZM280 108.839C280 110.172 278.667 110.839 276 110.839C273.333 110.839 272 110.172 272 108.839C272 107.505 273.333 106.839 276 106.839C278.667 106.839 280 107.505 280 108.839ZM296 108.839C296 110.172 294.667 110.839 292 110.839C289.333 110.839 288 110.172 288 108.839C288 107.505 289.333 106.839 292 106.839C294.667 106.839 296 107.505 296 108.839ZM312 108.839C312 110.172 310.667 110.839 308 110.839C305.333 110.839 304 110.172 304 108.839C304 107.505 305.333 106.839 308 106.839C310.667 106.839 312 107.505 312 108.839ZM328 108.839C328 110.172 326.667 110.839 324 110.839C321.333 110.839 320 110.172 320 108.839C320 107.505 321.333 106.839 324 106.839C326.667 106.839 328 107.505 328 108.839ZM344 108.839C344 110.172 342.667 110.839 340 110.839C337.333 110.839 336 110.172 336 108.839C336 107.505 337.333 106.839 340 106.839C342.667 106.839 344 107.505 344 108.839ZM360 108.839C360 110.172 358.667 110.839 356 110.839C353.333 110.839 352 110.172 352 108.839C352 107.505 353.333 106.839 356 106.839C358.667 106.839 360 107.505 360 108.839ZM372 108.839C372 109.905 371.067 110.839 370 110.839C368.933 110.839 368 109.905 368 108.839C368 107.772 368.933 106.839 370 106.839C371.067 106.839 372 107.772 372 108.839ZM724 124.172C724 140.972 723.867 141.505 721.067 142.172C719.333 142.572 646 142.705 558 142.572L398 142.172L397.6 124.439L397.2 106.839H560.667H724V124.172ZM168 122.839C168 125.505 167.333 126.839 166 126.839C164.667 126.839 164 125.505 164 122.839C164 120.172 164.667 118.839 166 118.839C167.333 118.839 168 120.172 168 122.839ZM372 122.839C372 125.505 371.333 126.839 370 126.839C368.667 126.839 368 125.505 368 122.839C368 120.172 368.667 118.839 370 118.839C371.333 118.839 372 120.172 372 122.839ZM168 139.505C168 142.705 167.333 144.172 166 144.172C164.667 144.172 164 142.705 164 139.505C164 136.305 164.667 134.839 166 134.839C167.333 134.839 168 136.305 168 139.505ZM372 139.505C372 142.705 371.333 144.172 370 144.172C368.667 144.172 368 142.705 368 139.505C368 136.305 368.667 134.839 370 134.839C371.333 134.839 372 136.305 372 139.505ZM168 156.172C168 158.839 167.333 160.172 166 160.172C164.667 160.172 164 158.839 164 156.172C164 153.505 164.667 152.172 166 152.172C167.333 152.172 168 153.505 168 156.172ZM372 156.172C372 158.839 371.333 160.172 370 160.172C368.667 160.172 368 158.839 368 156.172C368 153.505 368.667 152.172 370 152.172C371.333 152.172 372 153.505 372 156.172ZM723.333 166.839V176.839H560.667H398L397.6 166.439L397.2 156.172L560.267 156.439L723.333 156.839V166.839ZM168 172.172C168 174.839 167.333 176.172 166 176.172C164.667 176.172 164 174.839 164 172.172C164 169.505 164.667 168.172 166 168.172C167.333 168.172 168 169.505 168 172.172ZM372 172.172C372 174.839 371.333 176.172 370 176.172C368.667 176.172 368 174.839 368 172.172C368 169.505 368.667 168.172 370 168.172C371.333 168.172 372 169.505 372 172.172ZM168 188.172C168 190.839 167.333 192.172 166 192.172C164.667 192.172 164 190.839 164 188.172C164 185.505 164.667 184.172 166 184.172C167.333 184.172 168 185.505 168 188.172ZM372 188.172C372 190.839 371.333 192.172 370 192.172C368.667 192.172 368 190.839 368 188.172C368 185.505 368.667 184.172 370 184.172C371.333 184.172 372 185.505 372 188.172ZM723.733 196.439L724.133 206.839H560.667H397.333V197.105C397.333 191.639 397.733 186.839 398.267 186.439C398.667 185.905 472.133 185.639 561.2 185.772L723.333 186.172L723.733 196.439ZM168 205.505C168 208.172 167.333 209.505 166 209.505C164.667 209.505 164 208.172 164 205.505C164 202.839 164.667 201.505 166 201.505C167.333 201.505 168 202.839 168 205.505ZM372 205.505C372 208.172 371.333 209.505 370 209.505C368.667 209.505 368 208.172 368 205.505C368 202.839 368.667 201.505 370 201.505C371.333 201.505 372 202.839 372 205.505ZM621.867 218.305C623.067 221.372 622.8 233.905 621.6 235.905C620.667 237.239 597.333 237.505 509.2 237.239L398 236.839L397.6 228.305C397.333 223.639 397.467 218.972 397.867 218.039C398.4 216.439 417.467 216.172 509.867 216.172C610 216.172 621.067 216.439 621.867 218.305ZM168 221.505C168 224.172 167.333 225.505 166 225.505C164.667 225.505 164 224.172 164 221.505C164 218.839 164.667 217.505 166 217.505C167.333 217.505 168 218.839 168 221.505ZM372 221.505C372 224.172 371.333 225.505 370 225.505C368.667 225.505 368 224.172 368 221.505C368 218.839 368.667 217.505 370 217.505C371.333 217.505 372 218.839 372 221.505ZM168 237.505C168 240.172 167.333 241.505 166 241.505C164.667 241.505 164 240.172 164 237.505C164 234.839 164.667 233.505 166 233.505C167.333 233.505 168 234.839 168 237.505ZM372 237.505C372 240.172 371.333 241.505 370 241.505C368.667 241.505 368 240.172 368 237.505C368 234.839 368.667 233.505 370 233.505C371.333 233.505 372 234.839 372 237.505ZM168 254.172C168 257.372 167.333 258.839 166 258.839C164.667 258.839 164 257.372 164 254.172C164 250.972 164.667 249.505 166 249.505C167.333 249.505 168 250.972 168 254.172ZM372 254.172C372 257.372 371.333 258.839 370 258.839C368.667 258.839 368 257.372 368 254.172C368 250.972 368.667 249.505 370 249.505C371.333 249.505 372 250.972 372 254.172ZM168 270.839C168 273.505 167.333 274.839 166 274.839C164.667 274.839 164 273.505 164 270.839C164 268.172 164.667 266.839 166 266.839C167.333 266.839 168 268.172 168 270.839ZM372 270.839C372 273.505 371.333 274.839 370 274.839C368.667 274.839 368 273.505 368 270.839C368 268.172 368.667 266.839 370 266.839C371.333 266.839 372 268.172 372 270.839ZM168 284.839C168 285.905 167.067 286.839 166 286.839C164.933 286.839 164 285.905 164 284.839C164 283.772 164.933 282.839 166 282.839C167.067 282.839 168 283.772 168 284.839ZM184 284.839C184 286.172 182.667 286.839 180 286.839C177.333 286.839 176 286.172 176 284.839C176 283.505 177.333 282.839 180 282.839C182.667 282.839 184 283.505 184 284.839ZM200 284.839C200 286.172 198.667 286.839 196 286.839C193.333 286.839 192 286.172 192 284.839C192 283.505 193.333 282.839 196 282.839C198.667 282.839 200 283.505 200 284.839ZM216 284.839C216 286.172 214.667 286.839 212 286.839C209.333 286.839 208 286.172 208 284.839C208 283.505 209.333 282.839 212 282.839C214.667 282.839 216 283.505 216 284.839ZM232 284.839C232 286.172 230.667 286.839 228 286.839C225.333 286.839 224 286.172 224 284.839C224 283.505 225.333 282.839 228 282.839C230.667 282.839 232 283.505 232 284.839ZM248 284.839C248 286.172 246.667 286.839 244 286.839C241.333 286.839 240 286.172 240 284.839C240 283.505 241.333 282.839 244 282.839C246.667 282.839 248 283.505 248 284.839ZM264 284.839C264 286.172 262.667 286.839 260 286.839C257.333 286.839 256 286.172 256 284.839C256 283.505 257.333 282.839 260 282.839C262.667 282.839 264 283.505 264 284.839ZM280 284.839C280 286.172 278.667 286.839 276 286.839C273.333 286.839 272 286.172 272 284.839C272 283.505 273.333 282.839 276 282.839C278.667 282.839 280 283.505 280 284.839ZM296 284.839C296 286.172 294.667 286.839 292 286.839C289.333 286.839 288 286.172 288 284.839C288 283.505 289.333 282.839 292 282.839C294.667 282.839 296 283.505 296 284.839ZM312 284.839C312 286.172 310.667 286.839 308 286.839C305.333 286.839 304 286.172 304 284.839C304 283.505 305.333 282.839 308 282.839C310.667 282.839 312 283.505 312 284.839ZM328 284.839C328 286.172 326.667 286.839 324 286.839C321.333 286.839 320 286.172 320 284.839C320 283.505 321.333 282.839 324 282.839C326.667 282.839 328 283.505 328 284.839ZM344 284.839C344 286.172 342.667 286.839 340 286.839C337.333 286.839 336 286.172 336 284.839C336 283.505 337.333 282.839 340 282.839C342.667 282.839 344 283.505 344 284.839ZM360 284.839C360 286.172 358.667 286.839 356 286.839C353.333 286.839 352 286.172 352 284.839C352 283.505 353.333 282.839 356 282.839C358.667 282.839 360 283.505 360 284.839ZM372 284.839C372 285.905 371.067 286.839 370 286.839C368.933 286.839 368 285.905 368 284.839C368 283.772 368.933 282.839 370 282.839C371.067 282.839 372 283.772 372 284.839Z" stroke="black" strokeWidth="2" mask="url(#path-2-inside-1_86_68)"/>
<path d="M400.5 166.839V174.339H560.667H720.833V166.839V159.339H560.667H400.5V166.839Z" stroke="black"/>
<path d="M400.5 196.172V203.672H560.667H720.833V196.172V188.672H560.667H400.5V196.172Z" stroke="black"/>
<path d="M400.5 226.839V234.339H510H619.5V226.839V219.339H510H400.5V226.839Z" stroke="black"/>
<path d="M14.2088 109.826L14.2083 109.826C11.0401 111.279 8.80163 112.713 7.01125 114.584C5.21999 116.456 3.84875 118.795 2.46102 122.099L2.45878 122.104C1.63542 124.004 1.13351 127.109 0.84967 134.923C0.566735 142.712 0.5 155.102 0.5 175.505V223.672H64H127.5V165.505V107.339H73.7333C48.7953 107.339 35.1082 107.405 27.0383 107.755C18.9717 108.104 16.5847 108.735 14.2088 109.826Z" stroke="black"/>
<mask id="path-7-inside-2_86_68" fill="white">
<path d="M748 165.505V224.172H1046C1343.07 224.172 1344 224.172 1344 226.839C1344 229.505 1343.07 229.505 1046 229.505H748.133L747.733 286.972L747.333 344.439L743.6 347.639L739.867 350.839L437.2 350.572L134.4 350.172L131.2 346.439L128 342.705V286.039V229.505H64H0V562.439C0 882.839 0.133333 895.772 2.53333 900.839C5.46667 907.239 8.4 910.039 15.0667 912.839C19.0667 914.439 27.2 914.839 62 914.839H104V682.172C104 428.972 103.6 443.905 111.333 440.439C114 439.239 170 438.839 348.133 438.839C599.867 438.839 586.933 438.439 590.667 445.372C591.6 447.105 592 523.905 592 681.372V914.839H960C1288.27 914.839 1328.67 914.572 1332.93 912.839C1339.6 910.039 1342.53 907.239 1345.47 900.839C1347.87 895.772 1348 887.372 1348 715.239V534.839L1151.2 534.572L954.4 534.172L951.2 530.439L948 526.705V414.039C948 291.639 947.733 295.905 955.333 292.439C958 291.239 1005.33 290.839 1153.33 290.839H1348V208.439C1348 131.505 1347.73 125.772 1345.47 120.839C1342.53 114.439 1339.6 111.639 1332.93 108.839C1328.67 107.105 1296 106.839 1038 106.839H748V165.505ZM1110.67 149.772C1120.27 154.705 1125.47 164.972 1123.47 175.372C1121.47 185.772 1110.53 194.839 1100 194.839C1093.47 194.839 1084 189.772 1080.4 184.305C1072.27 172.039 1076.27 156.439 1089.33 149.772C1092.53 148.172 1097.33 146.839 1100 146.839C1102.67 146.839 1107.47 148.172 1110.67 149.772ZM1190.67 149.772C1200.27 154.705 1205.47 164.972 1203.47 175.372C1201.47 185.772 1190.53 194.839 1180 194.839C1173.47 194.839 1164 189.772 1160.4 184.305C1152.27 172.039 1156.27 156.439 1169.33 149.772C1172.53 148.172 1177.33 146.839 1180 146.839C1182.67 146.839 1187.47 148.172 1190.67 149.772ZM1266.67 149.772C1276.27 154.705 1281.47 164.972 1279.47 175.372C1277.47 185.772 1266.53 194.839 1256 194.839C1249.47 194.839 1240 189.772 1236.4 184.305C1228.27 172.039 1232.27 156.439 1245.33 149.772C1248.53 148.172 1253.33 146.839 1256 146.839C1258.67 146.839 1263.47 148.172 1266.67 149.772ZM708 580.839V594.839H694H680V580.839V566.839H694H708V580.839ZM968 580.839V594.839H954H940V580.839V566.839H954H968V580.839ZM832 574.705C832 578.172 832.533 578.572 837.333 579.372C840.267 579.772 844.133 579.905 846 579.372C848.133 578.839 850 579.372 851.333 580.705C854.133 583.372 857.333 583.505 857.333 580.839C857.333 579.772 858.533 578.839 860 578.839C861.467 578.839 862.667 579.772 862.667 580.839C862.667 581.905 861.6 582.839 860.4 582.839C859.067 582.839 861.867 584.305 866.667 586.039C886.267 592.972 899.467 601.239 915.067 616.039C931.2 631.505 943.333 650.305 949.467 669.239C950.8 673.372 951.867 675.772 951.867 674.439C952 671.239 956 671.505 956 674.839C956 676.305 955.067 677.505 954 677.505C951.333 677.505 951.467 680.705 954.133 683.505C955.467 684.839 956 686.705 955.467 688.839C954.933 690.705 955.067 694.572 955.467 697.505C956.267 702.305 956.667 702.839 960.133 702.839C964 702.839 964 702.972 964 710.839C964 718.705 964 718.839 960.133 718.839C956.667 718.839 956.267 719.372 955.467 724.172C955.067 727.105 954.933 730.972 955.467 732.839C956 734.972 955.467 736.839 954.133 738.172C951.467 740.972 951.333 744.172 954 744.172C955.067 744.172 956 745.372 956 746.839C956 748.305 955.067 749.505 954 749.505C952.933 749.505 952 748.439 952 747.105C952 745.905 950.533 748.705 948.933 753.505C934.933 792.839 904.133 823.372 865.333 836.305C861.333 837.639 859.067 838.705 860.4 838.705C863.6 838.839 863.333 842.839 860 842.839C858.533 842.839 857.333 841.905 857.333 840.839C857.333 838.172 854.133 838.305 851.333 840.972C850 842.305 848.133 842.839 846 842.305C844.133 841.772 840.267 841.905 837.333 842.305C832.533 843.105 832 843.505 832 846.972C832 850.839 831.867 850.839 824 850.839C816.133 850.839 816 850.839 816 846.972C816 843.505 815.467 843.105 810.667 842.305C807.733 841.905 803.867 841.772 802 842.305C799.867 842.839 798 842.305 796.667 840.972C793.867 838.305 790.667 838.172 790.667 840.839C790.667 841.905 789.467 842.839 788 842.839C786.533 842.839 785.333 841.905 785.333 840.839C785.333 839.772 786.4 838.839 787.733 838.839C788.933 838.839 786.133 837.372 781.333 835.772C742 821.772 711.467 790.972 698.533 752.172C697.2 748.172 696.133 745.905 696.133 747.105C696 750.439 692 750.172 692 746.839C692 745.372 692.933 744.172 694 744.172C696.667 744.172 696.533 740.972 693.867 738.172C692.533 736.839 692 734.972 692.533 732.839C693.067 730.972 692.933 727.105 692.533 724.172C691.733 719.372 691.333 718.839 687.867 718.839C684 718.839 684 718.705 684 710.839C684 702.972 684 702.839 687.867 702.839C691.333 702.839 691.733 702.305 692.533 697.505C692.933 694.572 693.067 690.705 692.533 688.839C692 686.705 692.533 684.839 693.867 683.505C696.533 680.705 696.667 677.505 694 677.505C692.933 677.505 692 676.305 692 674.839C692 673.372 692.933 672.172 694 672.172C695.067 672.172 696 673.239 696 674.439C696 675.772 697.467 672.972 699.2 668.172C706.133 648.572 714.4 635.372 729.2 619.772C744.533 603.639 760.533 593.372 781.333 586.039C786.133 584.439 788.933 582.972 787.733 582.972C784.4 582.839 784.667 578.839 788 578.839C789.467 578.839 790.667 579.772 790.667 580.839C790.667 583.505 793.867 583.372 796.667 580.705C798 579.372 799.867 578.839 802 579.372C803.867 579.905 807.733 579.772 810.667 579.372C815.467 578.572 816 578.172 816 574.705C816 570.839 816.133 570.839 824 570.839C831.867 570.839 832 570.839 832 574.705ZM718.667 580.839C718.667 581.905 717.467 582.839 716 582.839C714.533 582.839 713.333 581.905 713.333 580.839C713.333 579.772 714.533 578.839 716 578.839C717.467 578.839 718.667 579.772 718.667 580.839ZM730.667 580.839C730.667 581.905 729.467 582.839 728 582.839C726.533 582.839 725.333 581.905 725.333 580.839C725.333 579.772 726.533 578.839 728 578.839C729.467 578.839 730.667 579.772 730.667 580.839ZM742.667 580.839C742.667 581.905 741.467 582.839 740 582.839C738.533 582.839 737.333 581.905 737.333 580.839C737.333 579.772 738.533 578.839 740 578.839C741.467 578.839 742.667 579.772 742.667 580.839ZM754.667 580.839C754.667 581.905 753.467 582.839 752 582.839C750.533 582.839 749.333 581.905 749.333 580.839C749.333 579.772 750.533 578.839 752 578.839C753.467 578.839 754.667 579.772 754.667 580.839ZM766.667 580.839C766.667 581.905 765.467 582.839 764 582.839C762.533 582.839 761.333 581.905 761.333 580.839C761.333 579.772 762.533 578.839 764 578.839C765.467 578.839 766.667 579.772 766.667 580.839ZM778.667 580.839C778.667 581.905 777.467 582.839 776 582.839C774.533 582.839 773.333 581.905 773.333 580.839C773.333 579.772 774.533 578.839 776 578.839C777.467 578.839 778.667 579.772 778.667 580.839ZM874.667 580.839C874.667 581.905 873.467 582.839 872 582.839C870.533 582.839 869.333 581.905 869.333 580.839C869.333 579.772 870.533 578.839 872 578.839C873.467 578.839 874.667 579.772 874.667 580.839ZM886.667 580.839C886.667 581.905 885.467 582.839 884 582.839C882.533 582.839 881.333 581.905 881.333 580.839C881.333 579.772 882.533 578.839 884 578.839C885.467 578.839 886.667 579.772 886.667 580.839ZM898.667 580.839C898.667 581.905 897.467 582.839 896 582.839C894.533 582.839 893.333 581.905 893.333 580.839C893.333 579.772 894.533 578.839 896 578.839C897.467 578.839 898.667 579.772 898.667 580.839ZM910.667 580.839C910.667 581.905 909.467 582.839 908 582.839C906.533 582.839 905.333 581.905 905.333 580.839C905.333 579.772 906.533 578.839 908 578.839C909.467 578.839 910.667 579.772 910.667 580.839ZM922.667 580.839C922.667 581.905 921.467 582.839 920 582.839C918.533 582.839 917.333 581.905 917.333 580.839C917.333 579.772 918.533 578.839 920 578.839C921.467 578.839 922.667 579.772 922.667 580.839ZM934.667 580.839C934.667 581.905 933.467 582.839 932 582.839C930.533 582.839 929.333 581.905 929.333 580.839C929.333 579.772 930.533 578.839 932 578.839C933.467 578.839 934.667 579.772 934.667 580.839ZM696 602.839C696 604.305 695.067 605.505 694 605.505C692.933 605.505 692 604.305 692 602.839C692 601.372 692.933 600.172 694 600.172C695.067 600.172 696 601.372 696 602.839ZM956 602.839C956 604.305 955.067 605.505 954 605.505C952.933 605.505 952 604.305 952 602.839C952 601.372 952.933 600.172 954 600.172C955.067 600.172 956 601.372 956 602.839ZM696 614.839C696 616.305 695.067 617.505 694 617.505C692.933 617.505 692 616.305 692 614.839C692 613.372 692.933 612.172 694 612.172C695.067 612.172 696 613.372 696 614.839ZM956 614.839C956 616.305 955.067 617.505 954 617.505C952.933 617.505 952 616.305 952 614.839C952 613.372 952.933 612.172 954 612.172C955.067 612.172 956 613.372 956 614.839ZM696 626.839C696 628.305 695.067 629.505 694 629.505C692.933 629.505 692 628.305 692 626.839C692 625.372 692.933 624.172 694 624.172C695.067 624.172 696 625.372 696 626.839ZM956 626.839C956 628.305 955.067 629.505 954 629.505C952.933 629.505 952 628.305 952 626.839C952 625.372 952.933 624.172 954 624.172C955.067 624.172 956 625.372 956 626.839ZM696 638.839C696 640.305 695.067 641.505 694 641.505C692.933 641.505 692 640.305 692 638.839C692 637.372 692.933 636.172 694 636.172C695.067 636.172 696 637.372 696 638.839ZM956 638.839C956 640.305 955.067 641.505 954 641.505C952.933 641.505 952 640.305 952 638.839C952 637.372 952.933 636.172 954 636.172C955.067 636.172 956 637.372 956 638.839ZM696 650.839C696 652.305 695.067 653.505 694 653.505C692.933 653.505 692 652.305 692 650.839C692 649.372 692.933 648.172 694 648.172C695.067 648.172 696 649.372 696 650.839ZM956 650.839C956 652.305 955.067 653.505 954 653.505C952.933 653.505 952 652.305 952 650.839C952 649.372 952.933 648.172 954 648.172C955.067 648.172 956 649.372 956 650.839ZM696 662.839C696 664.305 695.067 665.505 694 665.505C692.933 665.505 692 664.305 692 662.839C692 661.372 692.933 660.172 694 660.172C695.067 660.172 696 661.372 696 662.839ZM956 662.839C956 664.305 955.067 665.505 954 665.505C952.933 665.505 952 664.305 952 662.839C952 661.372 952.933 660.172 954 660.172C955.067 660.172 956 661.372 956 662.839ZM696 758.839C696 760.305 695.067 761.505 694 761.505C692.933 761.505 692 760.305 692 758.839C692 757.372 692.933 756.172 694 756.172C695.067 756.172 696 757.372 696 758.839ZM956 758.839C956 760.305 955.067 761.505 954 761.505C952.933 761.505 952 760.305 952 758.839C952 757.372 952.933 756.172 954 756.172C955.067 756.172 956 757.372 956 758.839ZM696 770.839C696 772.305 695.067 773.505 694 773.505C692.933 773.505 692 772.305 692 770.839C692 769.372 692.933 768.172 694 768.172C695.067 768.172 696 769.372 696 770.839ZM956 770.839C956 772.305 955.067 773.505 954 773.505C952.933 773.505 952 772.305 952 770.839C952 769.372 952.933 768.172 954 768.172C955.067 768.172 956 769.372 956 770.839ZM696 782.839C696 784.305 695.067 785.505 694 785.505C692.933 785.505 692 784.305 692 782.839C692 781.372 692.933 780.172 694 780.172C695.067 780.172 696 781.372 696 782.839ZM956 782.839C956 784.305 955.067 785.505 954 785.505C952.933 785.505 952 784.305 952 782.839C952 781.372 952.933 780.172 954 780.172C955.067 780.172 956 781.372 956 782.839ZM696 794.839C696 796.305 695.067 797.505 694 797.505C692.933 797.505 692 796.305 692 794.839C692 793.372 692.933 792.172 694 792.172C695.067 792.172 696 793.372 696 794.839ZM956 794.839C956 796.305 955.067 797.505 954 797.505C952.933 797.505 952 796.305 952 794.839C952 793.372 952.933 792.172 954 792.172C955.067 792.172 956 793.372 956 794.839ZM696 806.839C696 808.305 695.067 809.505 694 809.505C692.933 809.505 692 808.305 692 806.839C692 805.372 692.933 804.172 694 804.172C695.067 804.172 696 805.372 696 806.839ZM956 806.839C956 808.305 955.067 809.505 954 809.505C952.933 809.505 952 808.305 952 806.839C952 805.372 952.933 804.172 954 804.172C955.067 804.172 956 805.372 956 806.839ZM696 818.839C696 820.305 695.067 821.505 694 821.505C692.933 821.505 692 820.305 692 818.839C692 817.372 692.933 816.172 694 816.172C695.067 816.172 696 817.372 696 818.839ZM956 818.839C956 820.305 955.067 821.505 954 821.505C952.933 821.505 952 820.305 952 818.839C952 817.372 952.933 816.172 954 816.172C955.067 816.172 956 817.372 956 818.839ZM708 840.839V854.839H694H680V840.839V826.839H694H708V840.839ZM968 840.839V854.839H954H940V840.839V826.839H954H968V840.839ZM718.667 840.839C718.667 841.905 717.467 842.839 716 842.839C714.533 842.839 713.333 841.905 713.333 840.839C713.333 839.772 714.533 838.839 716 838.839C717.467 838.839 718.667 839.772 718.667 840.839ZM730.667 840.839C730.667 841.905 729.467 842.839 728 842.839C726.533 842.839 725.333 841.905 725.333 840.839C725.333 839.772 726.533 838.839 728 838.839C729.467 838.839 730.667 839.772 730.667 840.839ZM742.667 840.839C742.667 841.905 741.467 842.839 740 842.839C738.533 842.839 737.333 841.905 737.333 840.839C737.333 839.772 738.533 838.839 740 838.839C741.467 838.839 742.667 839.772 742.667 840.839ZM754.667 840.839C754.667 841.905 753.467 842.839 752 842.839C750.533 842.839 749.333 841.905 749.333 840.839C749.333 839.772 750.533 838.839 752 838.839C753.467 838.839 754.667 839.772 754.667 840.839ZM766.667 840.839C766.667 841.905 765.467 842.839 764 842.839C762.533 842.839 761.333 841.905 761.333 840.839C761.333 839.772 762.533 838.839 764 838.839C765.467 838.839 766.667 839.772 766.667 840.839ZM778.667 840.839C778.667 841.905 777.467 842.839 776 842.839C774.533 842.839 773.333 841.905 773.333 840.839C773.333 839.772 774.533 838.839 776 838.839C777.467 838.839 778.667 839.772 778.667 840.839ZM874.667 840.839C874.667 841.905 873.467 842.839 872 842.839C870.533 842.839 869.333 841.905 869.333 840.839C869.333 839.772 870.533 838.839 872 838.839C873.467 838.839 874.667 839.772 874.667 840.839ZM886.667 840.839C886.667 841.905 885.467 842.839 884 842.839C882.533 842.839 881.333 841.905 881.333 840.839C881.333 839.772 882.533 838.839 884 838.839C885.467 838.839 886.667 839.772 886.667 840.839ZM898.667 840.839C898.667 841.905 897.467 842.839 896 842.839C894.533 842.839 893.333 841.905 893.333 840.839C893.333 839.772 894.533 838.839 896 838.839C897.467 838.839 898.667 839.772 898.667 840.839ZM910.667 840.839C910.667 841.905 909.467 842.839 908 842.839C906.533 842.839 905.333 841.905 905.333 840.839C905.333 839.772 906.533 838.839 908 838.839C909.467 838.839 910.667 839.772 910.667 840.839ZM922.667 840.839C922.667 841.905 921.467 842.839 920 842.839C918.533 842.839 917.333 841.905 917.333 840.839C917.333 839.772 918.533 838.839 920 838.839C921.467 838.839 922.667 839.772 922.667 840.839ZM934.667 840.839C934.667 841.905 933.467 842.839 932 842.839C930.533 842.839 929.333 841.905 929.333 840.839C929.333 839.772 930.533 838.839 932 838.839C933.467 838.839 934.667 839.772 934.667 840.839Z"/>
</mask>
<path d="M748 165.505V224.172H1046C1343.07 224.172 1344 224.172 1344 226.839C1344 229.505 1343.07 229.505 1046 229.505H748.133L747.733 286.972L747.333 344.439L743.6 347.639L739.867 350.839L437.2 350.572L134.4 350.172L131.2 346.439L128 342.705V286.039V229.505H64H0V562.439C0 882.839 0.133333 895.772 2.53333 900.839C5.46667 907.239 8.4 910.039 15.0667 912.839C19.0667 914.439 27.2 914.839 62 914.839H104V682.172C104 428.972 103.6 443.905 111.333 440.439C114 439.239 170 438.839 348.133 438.839C599.867 438.839 586.933 438.439 590.667 445.372C591.6 447.105 592 523.905 592 681.372V914.839H960C1288.27 914.839 1328.67 914.572 1332.93 912.839C1339.6 910.039 1342.53 907.239 1345.47 900.839C1347.87 895.772 1348 887.372 1348 715.239V534.839L1151.2 534.572L954.4 534.172L951.2 530.439L948 526.705V414.039C948 291.639 947.733 295.905 955.333 292.439C958 291.239 1005.33 290.839 1153.33 290.839H1348V208.439C1348 131.505 1347.73 125.772 1345.47 120.839C1342.53 114.439 1339.6 111.639 1332.93 108.839C1328.67 107.105 1296 106.839 1038 106.839H748V165.505ZM1110.67 149.772C1120.27 154.705 1125.47 164.972 1123.47 175.372C1121.47 185.772 1110.53 194.839 1100 194.839C1093.47 194.839 1084 189.772 1080.4 184.305C1072.27 172.039 1076.27 156.439 1089.33 149.772C1092.53 148.172 1097.33 146.839 1100 146.839C1102.67 146.839 1107.47 148.172 1110.67 149.772ZM1190.67 149.772C1200.27 154.705 1205.47 164.972 1203.47 175.372C1201.47 185.772 1190.53 194.839 1180 194.839C1173.47 194.839 1164 189.772 1160.4 184.305C1152.27 172.039 1156.27 156.439 1169.33 149.772C1172.53 148.172 1177.33 146.839 1180 146.839C1182.67 146.839 1187.47 148.172 1190.67 149.772ZM1266.67 149.772C1276.27 154.705 1281.47 164.972 1279.47 175.372C1277.47 185.772 1266.53 194.839 1256 194.839C1249.47 194.839 1240 189.772 1236.4 184.305C1228.27 172.039 1232.27 156.439 1245.33 149.772C1248.53 148.172 1253.33 146.839 1256 146.839C1258.67 146.839 1263.47 148.172 1266.67 149.772ZM708 580.839V594.839H694H680V580.839V566.839H694H708V580.839ZM968 580.839V594.839H954H940V580.839V566.839H954H968V580.839ZM832 574.705C832 578.172 832.533 578.572 837.333 579.372C840.267 579.772 844.133 579.905 846 579.372C848.133 578.839 850 579.372 851.333 580.705C854.133 583.372 857.333 583.505 857.333 580.839C857.333 579.772 858.533 578.839 860 578.839C861.467 578.839 862.667 579.772 862.667 580.839C862.667 581.905 861.6 582.839 860.4 582.839C859.067 582.839 861.867 584.305 866.667 586.039C886.267 592.972 899.467 601.239 915.067 616.039C931.2 631.505 943.333 650.305 949.467 669.239C950.8 673.372 951.867 675.772 951.867 674.439C952 671.239 956 671.505 956 674.839C956 676.305 955.067 677.505 954 677.505C951.333 677.505 951.467 680.705 954.133 683.505C955.467 684.839 956 686.705 955.467 688.839C954.933 690.705 955.067 694.572 955.467 697.505C956.267 702.305 956.667 702.839 960.133 702.839C964 702.839 964 702.972 964 710.839C964 718.705 964 718.839 960.133 718.839C956.667 718.839 956.267 719.372 955.467 724.172C955.067 727.105 954.933 730.972 955.467 732.839C956 734.972 955.467 736.839 954.133 738.172C951.467 740.972 951.333 744.172 954 744.172C955.067 744.172 956 745.372 956 746.839C956 748.305 955.067 749.505 954 749.505C952.933 749.505 952 748.439 952 747.105C952 745.905 950.533 748.705 948.933 753.505C934.933 792.839 904.133 823.372 865.333 836.305C861.333 837.639 859.067 838.705 860.4 838.705C863.6 838.839 863.333 842.839 860 842.839C858.533 842.839 857.333 841.905 857.333 840.839C857.333 838.172 854.133 838.305 851.333 840.972C850 842.305 848.133 842.839 846 842.305C844.133 841.772 840.267 841.905 837.333 842.305C832.533 843.105 832 843.505 832 846.972C832 850.839 831.867 850.839 824 850.839C816.133 850.839 816 850.839 816 846.972C816 843.505 815.467 843.105 810.667 842.305C807.733 841.905 803.867 841.772 802 842.305C799.867 842.839 798 842.305 796.667 840.972C793.867 838.305 790.667 838.172 790.667 840.839C790.667 841.905 789.467 842.839 788 842.839C786.533 842.839 785.333 841.905 785.333 840.839C785.333 839.772 786.4 838.839 787.733 838.839C788.933 838.839 786.133 837.372 781.333 835.772C742 821.772 711.467 790.972 698.533 752.172C697.2 748.172 696.133 745.905 696.133 747.105C696 750.439 692 750.172 692 746.839C692 745.372 692.933 744.172 694 744.172C696.667 744.172 696.533 740.972 693.867 738.172C692.533 736.839 692 734.972 692.533 732.839C693.067 730.972 692.933 727.105 692.533 724.172C691.733 719.372 691.333 718.839 687.867 718.839C684 718.839 684 718.705 684 710.839C684 702.972 684 702.839 687.867 702.839C691.333 702.839 691.733 702.305 692.533 697.505C692.933 694.572 693.067 690.705 692.533 688.839C692 686.705 692.533 684.839 693.867 683.505C696.533 680.705 696.667 677.505 694 677.505C692.933 677.505 692 676.305 692 674.839C692 673.372 692.933 672.172 694 672.172C695.067 672.172 696 673.239 696 674.439C696 675.772 697.467 672.972 699.2 668.172C706.133 648.572 714.4 635.372 729.2 619.772C744.533 603.639 760.533 593.372 781.333 586.039C786.133 584.439 788.933 582.972 787.733 582.972C784.4 582.839 784.667 578.839 788 578.839C789.467 578.839 790.667 579.772 790.667 580.839C790.667 583.505 793.867 583.372 796.667 580.705C798 579.372 799.867 578.839 802 579.372C803.867 579.905 807.733 579.772 810.667 579.372C815.467 578.572 816 578.172 816 574.705C816 570.839 816.133 570.839 824 570.839C831.867 570.839 832 570.839 832 574.705ZM718.667 580.839C718.667 581.905 717.467 582.839 716 582.839C714.533 582.839 713.333 581.905 713.333 580.839C713.333 579.772 714.533 578.839 716 578.839C717.467 578.839 718.667 579.772 718.667 580.839ZM730.667 580.839C730.667 581.905 729.467 582.839 728 582.839C726.533 582.839 725.333 581.905 725.333 580.839C725.333 579.772 726.533 578.839 728 578.839C729.467 578.839 730.667 579.772 730.667 580.839ZM742.667 580.839C742.667 581.905 741.467 582.839 740 582.839C738.533 582.839 737.333 581.905 737.333 580.839C737.333 579.772 738.533 578.839 740 578.839C741.467 578.839 742.667 579.772 742.667 580.839ZM754.667 580.839C754.667 581.905 753.467 582.839 752 582.839C750.533 582.839 749.333 581.905 749.333 580.839C749.333 579.772 750.533 578.839 752 578.839C753.467 578.839 754.667 579.772 754.667 580.839ZM766.667 580.839C766.667 581.905 765.467 582.839 764 582.839C762.533 582.839 761.333 581.905 761.333 580.839C761.333 579.772 762.533 578.839 764 578.839C765.467 578.839 766.667 579.772 766.667 580.839ZM778.667 580.839C778.667 581.905 777.467 582.839 776 582.839C774.533 582.839 773.333 581.905 773.333 580.839C773.333 579.772 774.533 578.839 776 578.839C777.467 578.839 778.667 579.772 778.667 580.839ZM874.667 580.839C874.667 581.905 873.467 582.839 872 582.839C870.533 582.839 869.333 581.905 869.333 580.839C869.333 579.772 870.533 578.839 872 578.839C873.467 578.839 874.667 579.772 874.667 580.839ZM886.667 580.839C886.667 581.905 885.467 582.839 884 582.839C882.533 582.839 881.333 581.905 881.333 580.839C881.333 579.772 882.533 578.839 884 578.839C885.467 578.839 886.667 579.772 886.667 580.839ZM898.667 580.839C898.667 581.905 897.467 582.839 896 582.839C894.533 582.839 893.333 581.905 893.333 580.839C893.333 579.772 894.533 578.839 896 578.839C897.467 578.839 898.667 579.772 898.667 580.839ZM910.667 580.839C910.667 581.905 909.467 582.839 908 582.839C906.533 582.839 905.333 581.905 905.333 580.839C905.333 579.772 906.533 578.839 908 578.839C909.467 578.839 910.667 579.772 910.667 580.839ZM922.667 580.839C922.667 581.905 921.467 582.839 920 582.839C918.533 582.839 917.333 581.905 917.333 580.839C917.333 579.772 918.533 578.839 920 578.839C921.467 578.839 922.667 579.772 922.667 580.839ZM934.667 580.839C934.667 581.905 933.467 582.839 932 582.839C930.533 582.839 929.333 581.905 929.333 580.839C929.333 579.772 930.533 578.839 932 578.839C933.467 578.839 934.667 579.772 934.667 580.839ZM696 602.839C696 604.305 695.067 605.505 694 605.505C692.933 605.505 692 604.305 692 602.839C692 601.372 692.933 600.172 694 600.172C695.067 600.172 696 601.372 696 602.839ZM956 602.839C956 604.305 955.067 605.505 954 605.505C952.933 605.505 952 604.305 952 602.839C952 601.372 952.933 600.172 954 600.172C955.067 600.172 956 601.372 956 602.839ZM696 614.839C696 616.305 695.067 617.505 694 617.505C692.933 617.505 692 616.305 692 614.839C692 613.372 692.933 612.172 694 612.172C695.067 612.172 696 613.372 696 614.839ZM956 614.839C956 616.305 955.067 617.505 954 617.505C952.933 617.505 952 616.305 952 614.839C952 613.372 952.933 612.172 954 612.172C955.067 612.172 956 613.372 956 614.839ZM696 626.839C696 628.305 695.067 629.505 694 629.505C692.933 629.505 692 628.305 692 626.839C692 625.372 692.933 624.172 694 624.172C695.067 624.172 696 625.372 696 626.839ZM956 626.839C956 628.305 955.067 629.505 954 629.505C952.933 629.505 952 628.305 952 626.839C952 625.372 952.933 624.172 954 624.172C955.067 624.172 956 625.372 956 626.839ZM696 638.839C696 640.305 695.067 641.505 694 641.505C692.933 641.505 692 640.305 692 638.839C692 637.372 692.933 636.172 694 636.172C695.067 636.172 696 637.372 696 638.839ZM956 638.839C956 640.305 955.067 641.505 954 641.505C952.933 641.505 952 640.305 952 638.839C952 637.372 952.933 636.172 954 636.172C955.067 636.172 956 637.372 956 638.839ZM696 650.839C696 652.305 695.067 653.505 694 653.505C692.933 653.505 692 652.305 692 650.839C692 649.372 692.933 648.172 694 648.172C695.067 648.172 696 649.372 696 650.839ZM956 650.839C956 652.305 955.067 653.505 954 653.505C952.933 653.505 952 652.305 952 650.839C952 649.372 952.933 648.172 954 648.172C955.067 648.172 956 649.372 956 650.839ZM696 662.839C696 664.305 695.067 665.505 694 665.505C692.933 665.505 692 664.305 692 662.839C692 661.372 692.933 660.172 694 660.172C695.067 660.172 696 661.372 696 662.839ZM956 662.839C956 664.305 955.067 665.505 954 665.505C952.933 665.505 952 664.305 952 662.839C952 661.372 952.933 660.172 954 660.172C955.067 660.172 956 661.372 956 662.839ZM696 758.839C696 760.305 695.067 761.505 694 761.505C692.933 761.505 692 760.305 692 758.839C692 757.372 692.933 756.172 694 756.172C695.067 756.172 696 757.372 696 758.839ZM956 758.839C956 760.305 955.067 761.505 954 761.505C952.933 761.505 952 760.305 952 758.839C952 757.372 952.933 756.172 954 756.172C955.067 756.172 956 757.372 956 758.839ZM696 770.839C696 772.305 695.067 773.505 694 773.505C692.933 773.505 692 772.305 692 770.839C692 769.372 692.933 768.172 694 768.172C695.067 768.172 696 769.372 696 770.839ZM956 770.839C956 772.305 955.067 773.505 954 773.505C952.933 773.505 952 772.305 952 770.839C952 769.372 952.933 768.172 954 768.172C955.067 768.172 956 769.372 956 770.839ZM696 782.839C696 784.305 695.067 785.505 694 785.505C692.933 785.505 692 784.305 692 782.839C692 781.372 692.933 780.172 694 780.172C695.067 780.172 696 781.372 696 782.839ZM956 782.839C956 784.305 955.067 785.505 954 785.505C952.933 785.505 952 784.305 952 782.839C952 781.372 952.933 780.172 954 780.172C955.067 780.172 956 781.372 956 782.839ZM696 794.839C696 796.305 695.067 797.505 694 797.505C692.933 797.505 692 796.305 692 794.839C692 793.372 692.933 792.172 694 792.172C695.067 792.172 696 793.372 696 794.839ZM956 794.839C956 796.305 955.067 797.505 954 797.505C952.933 797.505 952 796.305 952 794.839C952 793.372 952.933 792.172 954 792.172C955.067 792.172 956 793.372 956 794.839ZM696 806.839C696 808.305 695.067 809.505 694 809.505C692.933 809.505 692 808.305 692 806.839C692 805.372 692.933 804.172 694 804.172C695.067 804.172 696 805.372 696 806.839ZM956 806.839C956 808.305 955.067 809.505 954 809.505C952.933 809.505 952 808.305 952 806.839C952 805.372 952.933 804.172 954 804.172C955.067 804.172 956 805.372 956 806.839ZM696 818.839C696 820.305 695.067 821.505 694 821.505C692.933 821.505 692 820.305 692 818.839C692 817.372 692.933 816.172 694 816.172C695.067 816.172 696 817.372 696 818.839ZM956 818.839C956 820.305 955.067 821.505 954 821.505C952.933 821.505 952 820.305 952 818.839C952 817.372 952.933 816.172 954 816.172C955.067 816.172 956 817.372 956 818.839ZM708 840.839V854.839H694H680V840.839V826.839H694H708V840.839ZM968 840.839V854.839H954H940V840.839V826.839H954H968V840.839ZM718.667 840.839C718.667 841.905 717.467 842.839 716 842.839C714.533 842.839 713.333 841.905 713.333 840.839C713.333 839.772 714.533 838.839 716 838.839C717.467 838.839 718.667 839.772 718.667 840.839ZM730.667 840.839C730.667 841.905 729.467 842.839 728 842.839C726.533 842.839 725.333 841.905 725.333 840.839C725.333 839.772 726.533 838.839 728 838.839C729.467 838.839 730.667 839.772 730.667 840.839ZM742.667 840.839C742.667 841.905 741.467 842.839 740 842.839C738.533 842.839 737.333 841.905 737.333 840.839C737.333 839.772 738.533 838.839 740 838.839C741.467 838.839 742.667 839.772 742.667 840.839ZM754.667 840.839C754.667 841.905 753.467 842.839 752 842.839C750.533 842.839 749.333 841.905 749.333 840.839C749.333 839.772 750.533 838.839 752 838.839C753.467 838.839 754.667 839.772 754.667 840.839ZM766.667 840.839C766.667 841.905 765.467 842.839 764 842.839C762.533 842.839 761.333 841.905 761.333 840.839C761.333 839.772 762.533 838.839 764 838.839C765.467 838.839 766.667 839.772 766.667 840.839ZM778.667 840.839C778.667 841.905 777.467 842.839 776 842.839C774.533 842.839 773.333 841.905 773.333 840.839C773.333 839.772 774.533 838.839 776 838.839C777.467 838.839 778.667 839.772 778.667 840.839ZM874.667 840.839C874.667 841.905 873.467 842.839 872 842.839C870.533 842.839 869.333 841.905 869.333 840.839C869.333 839.772 870.533 838.839 872 838.839C873.467 838.839 874.667 839.772 874.667 840.839ZM886.667 840.839C886.667 841.905 885.467 842.839 884 842.839C882.533 842.839 881.333 841.905 881.333 840.839C881.333 839.772 882.533 838.839 884 838.839C885.467 838.839 886.667 839.772 886.667 840.839ZM898.667 840.839C898.667 841.905 897.467 842.839 896 842.839C894.533 842.839 893.333 841.905 893.333 840.839C893.333 839.772 894.533 838.839 896 838.839C897.467 838.839 898.667 839.772 898.667 840.839ZM910.667 840.839C910.667 841.905 909.467 842.839 908 842.839C906.533 842.839 905.333 841.905 905.333 840.839C905.333 839.772 906.533 838.839 908 838.839C909.467 838.839 910.667 839.772 910.667 840.839ZM922.667 840.839C922.667 841.905 921.467 842.839 920 842.839C918.533 842.839 917.333 841.905 917.333 840.839C917.333 839.772 918.533 838.839 920 838.839C921.467 838.839 922.667 839.772 922.667 840.839ZM934.667 840.839C934.667 841.905 933.467 842.839 932 842.839C930.533 842.839 929.333 841.905 929.333 840.839C929.333 839.772 930.533 838.839 932 838.839C933.467 838.839 934.667 839.772 934.667 840.839Z" stroke="black" strokeWidth="2" mask="url(#path-7-inside-2_86_68)"/>
<path d="M696.214 580.576L696.211 580.586L696.208 580.597C695.754 581.958 694.677 582.805 693.636 582.95C693.112 583.024 692.567 582.92 692.147 582.564C691.722 582.203 691.5 581.649 691.5 580.972C691.5 579.496 692.657 578.339 694.133 578.339C694.815 578.339 695.429 578.527 695.837 578.935C696.265 579.364 696.39 579.959 696.214 580.576ZM684.5 580.839V590.339H688C689.09 590.339 690.032 590.178 690.685 589.95C691.014 589.835 691.245 589.712 691.384 589.602C691.464 589.539 691.492 589.499 691.5 589.484C691.508 588.875 691.872 588.409 692.332 588.117C692.793 587.823 693.39 587.672 694 587.672C694.61 587.672 695.207 587.823 695.668 588.117C696.126 588.408 696.488 588.871 696.5 589.476C696.51 589.492 696.542 589.533 696.625 589.595C696.776 589.708 697.022 589.833 697.361 589.949C698.035 590.178 698.98 590.339 700 590.339C700.9 590.339 701.561 590.313 702.059 590.227C702.552 590.142 702.824 590.007 702.996 589.835C703.169 589.663 703.303 589.391 703.389 588.897C703.474 588.4 703.5 587.738 703.5 586.839C703.5 585.737 703.37 584.794 703.158 584.143C703.051 583.816 702.934 583.593 702.826 583.462C702.774 583.399 702.732 583.367 702.707 583.352C702.684 583.339 702.672 583.339 702.667 583.339C702.099 583.339 701.633 582.954 701.337 582.52C701.03 582.07 700.833 581.472 700.833 580.839C700.833 580.206 701.03 579.607 701.337 579.157C701.633 578.723 702.099 578.339 702.667 578.339C702.667 578.339 702.668 578.339 702.671 578.338C702.674 578.337 702.682 578.334 702.695 578.327C702.721 578.311 702.764 578.276 702.818 578.206C702.93 578.063 703.049 577.825 703.157 577.487C703.37 576.817 703.5 575.871 703.5 574.839V571.339H694H684.5V580.839Z" stroke="black"/>
<path d="M954.263 583.053L954.252 583.05L954.242 583.046C952.881 582.593 952.034 581.515 951.888 580.475C951.815 579.95 951.919 579.406 952.275 578.986C952.635 578.561 953.19 578.339 953.867 578.339C955.343 578.339 956.5 579.496 956.5 580.972C956.5 581.654 956.311 582.268 955.904 582.676C955.475 583.104 954.88 583.229 954.263 583.053ZM944.5 574.839C944.5 575.859 944.66 576.803 944.89 577.477C945.006 577.817 945.131 578.063 945.244 578.214C945.306 578.297 945.347 578.328 945.363 578.339C945.968 578.35 946.431 578.713 946.722 579.17C947.015 579.632 947.167 580.229 947.167 580.839C947.167 581.448 947.015 582.046 946.722 582.507C946.43 582.966 945.964 583.33 945.355 583.338C945.34 583.347 945.299 583.375 945.236 583.455C945.127 583.593 945.004 583.824 944.889 584.153C944.661 584.806 944.5 585.749 944.5 586.839C944.5 587.738 944.526 588.4 944.611 588.897C944.697 589.391 944.831 589.663 945.004 589.835C945.176 590.007 945.448 590.142 945.941 590.227C946.439 590.313 947.1 590.339 948 590.339C949.09 590.339 950.032 590.178 950.685 589.95C951.014 589.835 951.245 589.712 951.384 589.602C951.464 589.539 951.492 589.499 951.5 589.484C951.508 588.875 951.872 588.409 952.332 588.117C952.793 587.823 953.39 587.672 954 587.672C954.61 587.672 955.207 587.823 955.668 588.117C956.126 588.408 956.488 588.871 956.5 589.476C956.51 589.492 956.542 589.533 956.625 589.595C956.776 589.708 957.022 589.833 957.361 589.949C958.035 590.178 958.98 590.339 960 590.339H963.5V580.839V571.339H954H944.5V574.839Z" stroke="black"/>
<path d="M801.825 585.33L801.823 585.331C746.441 595.424 704.205 640.18 697.297 696.495C697.028 699.047 696.94 700.57 697.093 701.454C697.167 701.885 697.287 702.081 697.395 702.178C697.497 702.269 697.664 702.339 698 702.339C698.51 702.339 698.974 702.493 699.347 702.878C699.699 703.242 699.927 703.768 700.086 704.42C700.402 705.722 700.5 707.782 700.5 710.839C700.5 714.025 700.403 716.092 700.067 717.366C699.897 718.01 699.65 718.519 699.263 718.862C698.863 719.218 698.38 719.339 697.867 719.339C697.511 719.339 697.325 719.4 697.212 719.485C697.106 719.565 696.985 719.728 696.907 720.12C696.743 720.941 696.827 722.42 697.162 725.039C705.533 785.352 750.424 830.236 809.791 837.542C812.276 837.811 813.765 837.898 814.63 837.746C815.052 837.672 815.244 837.554 815.34 837.445C815.43 837.343 815.5 837.174 815.5 836.839C815.5 836.329 815.655 835.865 816.04 835.492C816.403 835.14 816.929 834.912 817.582 834.753C818.883 834.436 820.943 834.339 824 834.339C827.186 834.339 829.253 834.436 830.528 834.772C831.171 834.942 831.68 835.189 832.024 835.575C832.379 835.975 832.5 836.459 832.5 836.972C832.5 837.145 832.548 837.264 832.636 837.361C832.734 837.47 832.915 837.589 833.24 837.687C833.901 837.886 834.99 837.948 836.629 837.823C839.888 837.577 845.089 836.618 852.824 834.884L852.825 834.884C904.343 823.465 944.06 778.844 950.703 725.048C950.972 722.563 951.059 721.074 950.908 720.208C950.834 719.787 950.715 719.594 950.607 719.499C950.504 719.409 950.336 719.339 950 719.339C949.49 719.339 949.026 719.184 948.653 718.799C948.301 718.435 948.073 717.91 947.914 717.257C947.598 715.956 947.5 713.896 947.5 710.839C947.5 707.653 947.597 705.585 947.933 704.311C948.103 703.667 948.35 703.158 948.737 702.815C949.137 702.459 949.62 702.339 950.133 702.339C950.489 702.339 950.674 702.277 950.786 702.192C950.891 702.111 951.014 701.945 951.093 701.542C951.258 700.703 951.173 699.189 950.838 696.504C946.585 666.209 935.298 642.977 914.312 621.858L914.311 621.857C892.522 599.802 868.493 587.855 838.343 584.135C835.792 583.867 834.269 583.779 833.385 583.931C832.953 584.006 832.757 584.125 832.661 584.234C832.57 584.336 832.5 584.503 832.5 584.839C832.5 585.349 832.345 585.812 831.96 586.185C831.597 586.538 831.071 586.766 830.418 586.924C829.117 587.241 827.057 587.339 824 587.339C820.878 587.339 818.816 587.241 817.53 586.924C816.884 586.765 816.368 586.535 816.014 586.178C815.64 585.802 815.5 585.339 815.5 584.839C815.5 584.263 815.405 584.01 815.239 583.862C815.049 583.694 814.633 583.539 813.667 583.539C811.758 583.539 808.248 584.126 801.825 585.33Z" stroke="black"/>
<path d="M696.208 841.081L696.211 841.091L696.214 841.101C696.39 841.719 696.265 842.314 695.837 842.742C695.429 843.15 694.815 843.339 694.133 843.339C692.657 843.339 691.5 842.181 691.5 840.705C691.5 840.029 691.722 839.474 692.147 839.114C692.567 838.758 693.112 838.653 693.636 838.727C694.677 838.873 695.754 839.72 696.208 841.081ZM684.5 840.839V850.339H694H703.5V846.839C703.5 845.737 703.37 844.794 703.158 844.143C703.051 843.816 702.934 843.593 702.826 843.462C702.774 843.399 702.732 843.367 702.707 843.352C702.684 843.339 702.672 843.339 702.667 843.339C702.099 843.339 701.633 842.954 701.337 842.52C701.03 842.07 700.833 841.472 700.833 840.839C700.833 840.206 701.03 839.607 701.337 839.157C701.633 838.723 702.099 838.339 702.667 838.339C702.667 838.339 702.668 838.339 702.671 838.338C702.674 838.337 702.682 838.334 702.695 838.327C702.721 838.311 702.764 838.276 702.818 838.206C702.93 838.063 703.049 837.825 703.157 837.487C703.37 836.817 703.5 835.871 703.5 834.839C703.5 833.939 703.474 833.277 703.389 832.78C703.303 832.286 703.169 832.014 702.996 831.842C702.824 831.67 702.552 831.535 702.059 831.45C701.561 831.364 700.9 831.339 700 831.339C698.968 831.339 698.022 831.468 697.352 831.682C697.014 831.789 696.776 831.909 696.633 832.02C696.563 832.075 696.528 832.118 696.512 832.144C696.505 832.156 696.502 832.164 696.501 832.167C696.5 832.17 696.5 832.171 696.5 832.172C696.5 832.74 696.116 833.206 695.682 833.502C695.231 833.809 694.633 834.005 694 834.005C693.367 834.005 692.769 833.809 692.318 833.502C691.884 833.206 691.5 832.74 691.5 832.172C691.5 832.166 691.499 832.155 691.486 832.132C691.472 832.106 691.44 832.065 691.376 832.013C691.245 831.905 691.023 831.787 690.695 831.681C690.045 831.469 689.102 831.339 688 831.339H684.5V840.839Z" stroke="black"/>
<path d="M944.5 834.839C944.5 835.859 944.66 836.803 944.89 837.477C945.006 837.817 945.131 838.063 945.244 838.214C945.306 838.297 945.347 838.328 945.363 838.339C945.968 838.35 946.431 838.713 946.722 839.17C947.015 839.632 947.167 840.229 947.167 840.839C947.167 841.448 947.015 842.046 946.722 842.507C946.43 842.966 945.964 843.33 945.355 843.339C945.34 843.347 945.299 843.375 945.236 843.455C945.127 843.593 945.004 843.824 944.889 844.153C944.661 844.806 944.5 845.749 944.5 846.839V850.339H954H963.5V840.839V831.339H960C958.968 831.339 958.022 831.468 957.352 831.682C957.014 831.789 956.776 831.909 956.633 832.02C956.563 832.075 956.528 832.118 956.512 832.144C956.505 832.156 956.502 832.164 956.501 832.167C956.5 832.17 956.5 832.171 956.5 832.172C956.5 832.74 956.116 833.206 955.682 833.502C955.231 833.809 954.633 834.005 954 834.005C953.367 834.005 952.769 833.809 952.318 833.502C951.884 833.206 951.5 832.74 951.5 832.172C951.5 832.166 951.499 832.155 951.486 832.132C951.472 832.106 951.44 832.065 951.376 832.013C951.245 831.905 951.023 831.787 950.695 831.681C950.045 831.469 949.102 831.339 948 831.339C947.1 831.339 946.439 831.364 945.941 831.45C945.448 831.535 945.176 831.67 945.004 831.842C944.831 832.014 944.697 832.286 944.611 832.78C944.526 833.277 944.5 833.939 944.5 834.839ZM956.5 840.839C956.5 842.181 955.343 843.339 954 843.339C952.837 843.339 951.895 842.895 951.594 842.017C951.301 841.164 951.727 840.207 952.579 839.418C953.368 838.565 954.325 838.14 955.179 838.432C956.056 838.733 956.5 839.675 956.5 840.839Z" stroke="black"/>
<path d="M1565.66 327.677L1565.67 327.688C1566.01 328.567 1566.74 329.408 1567.65 330.148C1568.56 330.895 1569.69 331.571 1570.88 332.111C1572.07 332.651 1573.34 333.061 1574.54 333.267C1575.74 333.472 1576.91 333.482 1577.88 333.184C1577.88 333.184 1577.88 333.183 1577.88 333.183L1577.73 332.705L1565.66 327.677ZM1565.66 327.677C1562.64 319.437 1567.83 310.339 1576 310.339C1578.68 310.339 1581.6 311.599 1583.69 313.822L1565.66 327.677ZM955.303 298.242L955.303 298.242L955.295 298.251C954.608 298.97 954.119 299.565 953.746 300.359C953.372 301.158 953.102 302.19 952.913 303.797C952.534 307.027 952.5 312.422 952.5 322.572V343.672H1332H1711.5V322.439C1711.5 311.887 1711.47 306.461 1711.07 303.318C1710.87 301.756 1710.59 300.802 1710.21 300.08C1709.82 299.358 1709.32 298.83 1708.59 298.134L1708.59 298.133L1705.67 295.339H1331.87H957.954L955.303 298.242ZM1620.48 314.342L1620.48 314.349L1620.49 314.357C1622.87 316.804 1624.19 319.247 1624.32 321.764C1624.44 324.285 1623.36 326.772 1621.18 329.296C1617.89 333.22 1612.78 333.897 1608.55 332.376C1604.31 330.854 1600.83 327.095 1600.83 322.039C1600.83 320.788 1601.3 319.435 1602.03 318.131C1602.77 316.822 1603.79 315.527 1604.95 314.382C1606.11 313.238 1607.42 312.234 1608.74 311.512C1610.06 310.794 1611.42 310.339 1612.67 310.339C1613.85 310.339 1615.2 310.777 1616.53 311.479C1617.88 312.186 1619.25 313.181 1620.48 314.342ZM1642.57 332.084L1642.56 332.079L1642.55 332.074C1641.43 331.44 1640.25 330.433 1639.26 329.302C1638.27 328.172 1637.42 326.884 1637 325.672L1636.99 325.667C1633.09 314.237 1646.63 305.454 1655.54 313.806C1660.23 318.145 1659.82 324.201 1656.86 328.394C1653.89 332.588 1648.3 335.019 1642.57 332.084Z" stroke="black"/>
<path d="M1600.05 467.339L1600.19 467.218L1603.92 464.019C1603.92 464.019 1603.92 464.019 1603.92 464.019C1604.82 463.254 1605.55 462.603 1606.11 461.831C1606.68 461.047 1607.08 460.16 1607.35 458.933C1607.9 456.523 1608.03 452.693 1608.23 445.524C1608.23 445.522 1608.23 445.521 1608.23 445.519L1607.73 445.505C1608.4 427.372 1607.73 424.839 1602.27 421.505L1600.05 467.339ZM1600.05 467.339L1599.87 467.339L1329.07 467.072L1058.4 466.672L1058.17 466.672L1058.02 466.497L1054.82 462.764L1054.82 462.762C1054.08 461.889 1053.48 461.122 1053.02 460.243C1052.55 459.358 1052.23 458.381 1052.01 457.091C1051.56 454.538 1051.5 450.688 1051.5 443.772L1051.5 443.768C1051.57 435.78 1051.86 430.71 1052.87 427.249C1053.38 425.505 1054.07 424.151 1055.01 423.031C1055.95 421.913 1057.13 421.052 1058.56 420.267M1600.05 467.339L1602.53 421.08C1601.96 420.727 1601.39 420.41 1600.3 420.14C1599.22 419.874 1597.66 419.653 1595.11 419.465C1590 419.089 1580.84 418.839 1563.59 418.672C1529.07 418.339 1462.07 418.339 1330.01 418.339H1330C1220.07 418.405 1152.93 418.505 1112.95 418.772C1092.95 418.905 1079.75 419.08 1071.37 419.314C1067.18 419.431 1064.19 419.562 1062.16 419.711C1061.15 419.785 1060.37 419.864 1059.8 419.949C1059.51 419.992 1059.27 420.037 1059.07 420.086C1058.88 420.132 1058.7 420.189 1058.56 420.267M1058.56 420.267L1058.8 420.705L1058.56 420.267C1058.56 420.267 1058.56 420.267 1058.56 420.267ZM1711.5 437.505V350.005H1332H952.5V437.505C952.5 480.644 952.5 502.634 952.833 514.174C953 519.953 953.25 523.075 953.615 524.914C953.797 525.827 954.003 526.398 954.226 526.811C954.447 527.218 954.698 527.497 955.02 527.818C955.32 528.118 955.574 528.355 956.243 528.578C956.952 528.814 958.117 529.029 960.236 529.216C964.463 529.589 972.335 529.839 987.572 530.005C1018.04 530.339 1077.86 530.339 1196.67 530.339H1435.5V507.505C1435.5 496.717 1435.57 490.785 1435.94 487.253C1436.12 485.483 1436.39 484.277 1436.78 483.349C1437.17 482.406 1437.69 481.779 1438.31 481.152C1439.1 480.37 1440.15 479.672 1441.22 479.169C1442.29 478.669 1443.43 478.339 1444.4 478.339C1444.61 478.339 1444.83 478.4 1445.05 478.479C1445.27 478.563 1445.54 478.682 1445.83 478.833C1446.41 479.135 1447.16 479.58 1448.05 480.157C1449.82 481.312 1452.22 483.019 1455.18 485.238C1461.11 489.678 1469.31 496.183 1479.38 504.452L1479.38 504.453L1510.85 530.339H1608.67C1656.8 530.339 1681.3 530.339 1694.09 530.005C1700.49 529.839 1703.93 529.589 1705.93 529.222C1706.92 529.039 1707.53 528.832 1707.96 528.609C1708.38 528.389 1708.66 528.139 1708.98 527.818C1709.3 527.497 1709.55 527.218 1709.77 526.811C1710 526.398 1710.2 525.827 1710.38 524.914C1710.75 523.075 1711 519.953 1711.17 514.174C1711.5 502.634 1711.5 480.644 1711.5 437.505Z" stroke="black"/>
<path d="M484.482 462.347L484.492 462.357L484.8 476.972L485.18 477.297C485.179 477.298 485.179 477.298 485.178 477.299C483.957 478.724 482.837 479.715 481.514 480.341C480.189 480.967 478.707 481.205 476.8 481.205C466.207 481.205 461.453 468.632 469.54 461.66C472.065 459.477 474.553 458.397 477.075 458.523C479.592 458.648 482.034 459.967 484.482 462.347ZM509.556 480.506L509.555 480.506C507.219 479.613 505.4 478.329 504.148 476.636C502.895 474.941 502.236 472.872 502.167 470.453L502.167 470.445C502.098 465.116 504.977 461.1 508.809 459.35C512.643 457.6 517.402 458.133 521.021 461.819C525.277 466.008 525.16 471.737 522.626 475.867C520.092 479.999 515.088 482.607 509.556 480.506ZM552.171 480.509L552.161 480.512C544.804 483.011 536.833 477.749 536.833 470.172C536.833 460.048 548.668 454.665 555.687 461.818C561.79 467.787 559.878 477.706 552.171 480.509ZM112.365 442.482C110.896 443.299 109.798 444.092 108.951 445.167C108.103 446.242 107.478 447.636 107.022 449.697C106.102 453.849 105.9 460.553 105.833 472.44V494.339H348H590.167V472.839C590.167 460.887 589.964 454.048 589.028 449.796C588.564 447.685 587.925 446.249 587.067 445.153C586.212 444.062 585.11 443.27 583.649 442.489C583.643 442.487 583.615 442.478 583.555 442.466C583.475 442.449 583.365 442.43 583.22 442.411C582.931 442.372 582.531 442.334 582.02 442.295C581 442.217 579.559 442.141 577.724 442.068C574.055 441.921 568.827 441.785 562.258 441.658C549.123 441.405 530.642 441.192 508.598 441.02C464.51 440.676 406.174 440.497 347.85 440.489C289.526 440.48 231.215 440.643 187.177 440.982C165.158 441.152 146.708 441.366 133.611 441.625C127.061 441.755 121.853 441.896 118.206 442.047C116.382 442.123 114.954 442.202 113.946 442.283C113.441 442.324 113.048 442.364 112.766 442.405C112.625 442.425 112.519 442.444 112.444 442.461C112.394 442.472 112.37 442.48 112.365 442.482Z" stroke="black"/>
<path d="M1444.5 509.505V530.339H1470.8H1496.07L1471.15 509.892L1471.15 509.891C1464.02 504.026 1457.45 498.694 1452.62 494.829C1450.21 492.896 1448.22 491.332 1446.82 490.251C1446.12 489.71 1445.57 489.293 1445.18 489.012C1445.14 488.982 1445.1 488.953 1445.06 488.927C1445.02 489.173 1444.99 489.498 1444.95 489.901C1444.85 490.97 1444.77 492.525 1444.7 494.456C1444.57 498.314 1444.5 503.641 1444.5 509.505ZM1445.16 488.475C1445.16 488.475 1445.16 488.476 1445.16 488.478C1445.16 488.476 1445.16 488.475 1445.16 488.475Z" stroke="black"/>
<mask id="path-17-inside-3_86_68" fill="white">
<path d="M106.267 497.105C105.733 497.505 105.333 626.039 105.333 782.705C105.333 1062.71 105.333 1067.64 108 1071.77C109.733 1074.71 111.867 1076.31 114.933 1076.84C117.333 1077.24 223.867 1077.37 351.6 1077.24L583.867 1076.84L586.933 1073.77L590 1070.71V783.772V496.839L348.533 496.439C215.733 496.305 106.667 496.572 106.267 497.105ZM544 568.039C544 582.439 543.6 585.372 541.867 586.039C539.2 587.105 156.8 587.105 154.133 586.039C152.4 585.372 152 582.439 152 568.039V550.839H348H544V568.039ZM543.733 610.439C544.133 619.505 544 620.172 541.067 620.839C539.333 621.239 451.333 621.372 345.333 621.239L152.667 620.839L152.267 612.305C152 607.639 152.133 602.972 152.533 602.039C153.2 600.439 184.933 600.172 348.267 600.439L543.333 600.839L543.733 610.439ZM541.867 630.305C543.6 630.972 544 633.239 544 640.972V650.839H348H152V640.972C152 634.305 152.533 630.839 153.733 630.439C156.133 629.372 539.333 629.372 541.867 630.305ZM420.667 670.839V680.839H286.667H152.667L152.267 672.305C152 667.639 152.133 662.972 152.533 662.039C153.2 660.439 175.2 660.172 286.933 660.439L420.667 660.839V670.839ZM543.333 740.839V758.172H348H152.667L152.267 742.305C152.133 733.505 152.267 725.505 152.533 724.572C153.067 723.105 188.4 722.839 348.267 723.105L543.333 723.505V740.839ZM543.333 782.839V792.839H348H152.667L152.267 784.305C152 779.639 152.133 774.972 152.533 774.039C153.2 772.439 184.933 772.172 348.267 772.439L543.333 772.839V782.839ZM543.333 813.505V823.505H348H152.667L152.267 814.972C152 810.305 152.133 805.639 152.533 804.705C153.2 803.105 184.933 802.839 348.267 803.105L543.333 803.505V813.505ZM421.067 843.105L421.467 853.505H286.667H152V843.639C152 836.972 152.533 833.505 153.733 833.105C154.533 832.705 215.067 832.439 288 832.572L420.667 832.839L421.067 843.105ZM543.333 912.839V930.172H348H152.667L152.267 914.305C152.133 905.505 152.267 897.505 152.533 896.572C153.067 895.105 188.4 894.839 348.267 895.105L543.333 895.505V912.839ZM543.333 954.839V964.839H348H152.667L152.267 956.305C152 951.639 152.133 946.972 152.533 946.039C153.2 944.439 184.933 944.172 348.267 944.439L543.333 944.839V954.839ZM543.333 985.505V995.505H348H152.667L152.267 986.972C152 982.305 152.133 977.639 152.533 976.705C153.2 975.105 184.933 974.839 348.267 975.105L543.333 975.505V985.505ZM421.067 1015.11L421.467 1025.51H286.667H152V1015.64C152 1008.97 152.533 1005.51 153.733 1005.11C154.533 1004.71 215.067 1004.44 288 1004.57L420.667 1004.84L421.067 1015.11Z"/>
</mask>
<path d="M106.267 497.105C105.733 497.505 105.333 626.039 105.333 782.705C105.333 1062.71 105.333 1067.64 108 1071.77C109.733 1074.71 111.867 1076.31 114.933 1076.84C117.333 1077.24 223.867 1077.37 351.6 1077.24L583.867 1076.84L586.933 1073.77L590 1070.71V783.772V496.839L348.533 496.439C215.733 496.305 106.667 496.572 106.267 497.105ZM544 568.039C544 582.439 543.6 585.372 541.867 586.039C539.2 587.105 156.8 587.105 154.133 586.039C152.4 585.372 152 582.439 152 568.039V550.839H348H544V568.039ZM543.733 610.439C544.133 619.505 544 620.172 541.067 620.839C539.333 621.239 451.333 621.372 345.333 621.239L152.667 620.839L152.267 612.305C152 607.639 152.133 602.972 152.533 602.039C153.2 600.439 184.933 600.172 348.267 600.439L543.333 600.839L543.733 610.439ZM541.867 630.305C543.6 630.972 544 633.239 544 640.972V650.839H348H152V640.972C152 634.305 152.533 630.839 153.733 630.439C156.133 629.372 539.333 629.372 541.867 630.305ZM420.667 670.839V680.839H286.667H152.667L152.267 672.305C152 667.639 152.133 662.972 152.533 662.039C153.2 660.439 175.2 660.172 286.933 660.439L420.667 660.839V670.839ZM543.333 740.839V758.172H348H152.667L152.267 742.305C152.133 733.505 152.267 725.505 152.533 724.572C153.067 723.105 188.4 722.839 348.267 723.105L543.333 723.505V740.839ZM543.333 782.839V792.839H348H152.667L152.267 784.305C152 779.639 152.133 774.972 152.533 774.039C153.2 772.439 184.933 772.172 348.267 772.439L543.333 772.839V782.839ZM543.333 813.505V823.505H348H152.667L152.267 814.972C152 810.305 152.133 805.639 152.533 804.705C153.2 803.105 184.933 802.839 348.267 803.105L543.333 803.505V813.505ZM421.067 843.105L421.467 853.505H286.667H152V843.639C152 836.972 152.533 833.505 153.733 833.105C154.533 832.705 215.067 832.439 288 832.572L420.667 832.839L421.067 843.105ZM543.333 912.839V930.172H348H152.667L152.267 914.305C152.133 905.505 152.267 897.505 152.533 896.572C153.067 895.105 188.4 894.839 348.267 895.105L543.333 895.505V912.839ZM543.333 954.839V964.839H348H152.667L152.267 956.305C152 951.639 152.133 946.972 152.533 946.039C153.2 944.439 184.933 944.172 348.267 944.439L543.333 944.839V954.839ZM543.333 985.505V995.505H348H152.667L152.267 986.972C152 982.305 152.133 977.639 152.533 976.705C153.2 975.105 184.933 974.839 348.267 975.105L543.333 975.505V985.505ZM421.067 1015.11L421.467 1025.51H286.667H152V1015.64C152 1008.97 152.533 1005.51 153.733 1005.11C154.533 1004.71 215.067 1004.44 288 1004.57L420.667 1004.84L421.067 1015.11Z" stroke="black" strokeWidth="2" mask="url(#path-17-inside-3_86_68)"/>
<path d="M155.167 610.839V618.339H348H540.833V610.839V603.339H348H155.167V610.839Z" stroke="black"/>
<path d="M155.167 640.172V647.672H348H540.833V640.172V632.672H348H155.167V640.172Z" stroke="black"/>
<path d="M155.167 670.839V678.339H286.667H418.167V670.839V663.339H286.667H155.167V670.839Z" stroke="black"/>
<path d="M155.167 782.839V790.339H348H540.833V782.839V775.339H348H155.167V782.839Z" stroke="black"/>
<path d="M155.167 813.505V821.005H348H540.833V813.505V806.005H348H155.167V813.505Z" stroke="black"/>
<path d="M155.167 842.839V850.339H286.667H418.167V842.839V835.339H286.667H155.167V842.839Z" stroke="black"/>
<path d="M155.167 954.839V962.339H348H540.833V954.839V947.339H348H155.167V954.839Z" stroke="black"/>
<path d="M155.167 985.505V993.005H348H540.833V985.505V978.005H348H155.167V985.505Z" stroke="black"/>
<path d="M155.167 1014.84V1022.34H286.667H418.167V1014.84V1007.34H286.667H155.167V1014.84Z" stroke="black"/>
</svg>
