<svg width="663" height="400" viewBox="0 0 663 400" fill="none" xmlns="http://www.w3.org/2000/svg">
<path d="M611.921 397.668C700.432 276.536 657.567 115.699 602.146 77.8779C521.727 22.9727 466.934 86.7335 383.601 86.6439C294.013 86.5318 302.196 -8.68349 176.917 0.642991C54.9103 9.72285 7.5829 135.294 1.21579 228.828C-5.28584 324.155 15.8108 375.854 28.433 397.646H611.921V397.668Z" fill="#DCF4FF"/>
<path d="M516.547 196.118C510.561 195.221 504.552 195.333 498.746 196.387L490.63 184.258L481.46 188.204L472.291 192.15L475.541 206.363C470.811 209.861 466.596 214.165 463.144 219.142L448.84 216.295L445.163 225.577L441.486 234.858L453.839 242.616C452.943 248.602 453.055 254.61 454.108 260.417L441.98 268.532L445.925 277.702L449.871 286.872L464.085 283.621C467.583 288.351 471.887 292.566 476.864 296.019L474.017 310.322L483.299 313.999L492.58 317.676L500.337 305.323C506.323 306.219 512.332 306.107 518.138 305.054L526.254 317.183L535.424 313.237L544.593 309.291L541.342 295.077C546.073 291.58 550.288 287.275 553.74 282.298L568.044 285.145L571.721 275.864L575.398 266.582L563.044 258.825C563.941 252.839 563.829 246.83 562.775 241.024L574.904 232.908L570.958 223.738L567.013 214.569L552.799 217.82C549.301 213.089 544.997 208.874 540.02 205.422L542.867 191.118L533.585 187.441L524.304 183.765L516.547 196.118ZM543.226 264.519C535.603 283.733 513.834 293.127 494.62 285.482C475.407 277.859 466.013 256.09 473.658 236.876C481.281 217.663 503.05 208.269 522.263 215.914C541.455 223.559 550.848 245.306 543.226 264.519Z" fill="#DCF4FF"/>
<path d="M585.57 123.972C582.589 122.851 579.472 122.246 576.378 122.156L573.531 115.027L568.375 116.058L563.218 117.089L563.33 124.779C560.505 126.057 557.86 127.806 555.528 130.003L548.466 126.976L545.552 131.348L542.637 135.72L548.152 141.011C547.031 143.993 546.426 147.109 546.336 150.203L539.207 153.05L540.238 158.206L541.27 163.363L548.959 163.251C550.237 166.076 551.986 168.721 554.183 171.053L551.157 178.115L555.528 181.029L559.9 183.944L565.258 178.429C568.24 179.55 571.356 180.155 574.45 180.245L577.298 187.374L582.454 186.343L587.611 185.311L587.498 177.622C590.323 176.344 592.969 174.595 595.3 172.398L602.363 175.425L605.277 171.053L608.192 166.681L602.676 161.323C603.797 158.341 604.403 155.225 604.492 152.131L611.622 149.283L610.59 144.127L609.559 138.971L601.869 139.083C600.591 136.258 598.843 133.612 596.646 131.281L599.672 124.219L595.3 121.304L590.929 118.39L585.57 123.972ZM591.781 162.13C585.727 171.187 573.486 173.631 564.451 167.578C555.394 161.524 552.95 149.283 559.003 140.248C565.057 131.191 577.298 128.747 586.333 134.801C595.368 140.854 597.834 153.072 591.781 162.13Z" fill="#DCF4FF"/>
<path d="M65.58 312.251C63.0914 311.309 60.5132 310.816 57.935 310.726L55.5809 304.785L51.2988 305.637L47.0167 306.489L47.1064 312.879C44.7524 313.955 42.5553 315.39 40.6272 317.206L34.7533 314.672L32.332 318.304L29.9107 321.936L34.5067 326.397C33.5651 328.886 33.0718 331.464 32.9822 334.042L27.041 336.397L27.893 340.679L28.7449 344.961L35.1344 344.871C36.2106 347.225 37.6454 349.422 39.4614 351.35L36.928 357.224L40.5599 359.645L44.1919 362.067L48.6533 357.471C51.1419 358.412 53.7201 358.906 56.2984 358.995L58.6524 364.936L62.9345 364.085L67.2166 363.233L67.1269 356.843C69.481 355.767 71.6781 354.332 73.6061 352.516L79.48 355.049L81.9013 351.418L84.3226 347.786L79.7266 343.324C80.6683 340.836 81.1615 338.257 81.2512 335.679L87.1923 333.325L86.3404 329.043L85.4884 324.761L79.0989 324.851C78.0228 322.496 76.5879 320.299 74.7719 318.371L77.3053 312.497L73.6734 310.076L70.0415 307.655L65.58 312.251ZM70.7589 343.997C65.7369 351.53 55.5585 353.547 48.0256 348.525C40.4927 343.503 38.4749 333.325 43.4969 325.792C48.5188 318.259 58.6972 316.241 66.2301 321.263C73.7407 326.285 75.7808 336.464 70.7589 343.997Z" fill="#DCF4FF"/>
<path d="M101.166 188.518C95.8976 188.585 90.786 189.504 85.9434 191.185L77.3568 181.904L70.048 186.545L62.7393 191.185L67.4922 202.933C63.9275 206.588 60.9009 210.847 58.6141 215.578L45.9696 215.107L44.0864 223.559L42.2031 232.011L53.8612 236.966C53.9285 242.235 54.8477 247.346 56.5291 252.189L47.2475 260.798L51.8883 268.107L56.5291 275.415L68.2769 270.662C71.9313 274.227 76.191 277.254 80.9215 279.54L80.4506 292.185L88.9028 294.068L97.3549 295.951L102.31 284.293C107.578 284.226 112.69 283.307 117.532 281.625L126.141 290.907L133.45 286.266L140.759 281.625L136.006 269.878C139.571 266.223 142.597 261.964 144.884 257.233L157.529 257.704L159.412 249.252L161.295 240.8L149.637 235.845C149.57 230.576 148.651 225.465 146.969 220.622L156.251 212.013L151.61 204.704L146.969 197.396L135.199 202.149C131.544 198.584 127.285 195.557 122.554 193.27L123.025 180.626L114.573 178.743L106.121 176.859L101.166 188.518ZM133.428 243.468C129.527 260.977 112.174 272.007 94.6646 268.107C77.155 264.206 66.1246 246.853 70.0256 229.343C73.9266 211.834 91.2792 200.803 108.789 204.704C126.298 208.605 137.329 225.958 133.428 243.468Z" fill="#DCF4FF"/>
<path d="M110.432 350.363L469.793 350.363V241.517L110.432 241.517V350.363Z" fill="#3F567E"/>
<path d="M89.3612 241.494L508.447 241.494V236.27L89.3612 236.27V241.494Z" fill="#223749"/>
<path d="M494.892 241.495H427.836V398.565H494.892V241.495Z" fill="#49597D"/>
<path d="M427.835 241.495H422.432V398.565H427.835V241.495Z" fill="#647BA3"/>
<path d="M113.668 241.495H107.211V398.565H113.668V241.495Z" fill="#49597D"/>
<path d="M508.456 236.107L285.248 236.345L285.248 236.704L508.456 236.466L508.456 236.107Z" fill="black"/>
<path d="M237.405 236.226H102.418V236.585H237.405V236.226Z" fill="black"/>
<path d="M508.433 241.316H285.539V241.674H508.433V241.316Z" fill="black"/>
<path d="M102.411 241.311L102.41 241.67L237.666 241.91L237.667 241.551L102.411 241.311Z" fill="black"/>
<path d="M89.2559 241.674H153.308V241.315H89.4801V236.473H161.85V236.092H89.2559V241.674Z" fill="black"/>
<path d="M494.733 277.097H495.092C495.092 277.097 495.07 242.1 495.07 241.517H494.711C494.711 242.1 494.733 277.097 494.733 277.097Z" fill="black"/>
<path d="M422.613 241.495H422.254V398.565H422.613V241.495Z" fill="black"/>
<path d="M428.017 241.495H427.658V318.214H428.017V241.495Z" fill="black"/>
<path d="M434.045 254.386L440.166 248.893L439.919 248.624L433.799 254.117L434.045 254.386Z" fill="black"/>
<path d="M433.262 258.601L439.405 253.13L439.159 252.839L433.016 258.332L433.262 258.601Z" fill="black"/>
<path d="M422.432 350.162H347.035V350.52H422.432V350.162Z" fill="black"/>
<path d="M113.919 241.495H113.426V398.565H113.919V241.495Z" fill="black"/>
<path d="M172.16 232.124H189.669L179.58 182.98H204.466L214.555 232.124H232.019C234.486 232.124 237.221 234.119 238.162 236.585H169.38C168.438 234.119 169.693 232.124 172.16 232.124Z" fill="#0A161E"/>
<path d="M118.375 213.358L119.966 201.925L129.853 130.541C130.324 127.156 133.463 124.398 136.848 124.398H275.266L275.288 124.219C278.763 124.219 281.207 127.044 280.736 130.541L269.257 213.358C268.921 215.825 266.97 217.842 264.953 217.842H121.267L121.289 217.663C119.361 217.663 118.038 215.735 118.375 213.358Z" fill="#1E2B46"/>
<path d="M186.536 235.106H211.421L200.727 182.98H175.842L186.536 235.106Z" fill="#223749"/>
<path d="M115.559 201.924L125.446 130.541C125.916 127.156 129.055 124.398 132.44 124.398H270.835C274.221 124.398 276.597 127.156 276.126 130.541L266.239 201.924H115.559Z" fill="#49597D"/>
<path d="M266.23 201.925L264.638 213.359C264.302 215.735 262.463 217.663 260.535 217.663H116.872C114.921 217.663 113.621 215.735 113.957 213.359L115.549 201.925H266.23Z" fill="#1E2B46"/>
<path d="M119.498 198.831L128.914 130.743C129.161 128.949 130.865 127.515 132.703 127.515H269.641C271.479 127.515 272.78 128.972 272.533 130.743L263.117 198.831H119.498Z" fill="#8CD2F9"/>
<path d="M165.611 236.585C164.692 234.119 165.925 232.123 168.391 232.123H228.251C230.717 232.123 233.452 234.119 234.393 236.585H165.611Z" fill="#122330"/>
<path d="M116.852 217.865H260.515C262.555 217.865 264.483 215.847 264.82 213.381L276.276 130.563C276.769 127.088 274.326 124.241 270.828 124.241L270.783 124.6C274.079 124.6 276.366 127.268 275.917 130.563L264.461 213.381C264.147 215.668 262.398 217.506 260.56 217.506H116.896L116.852 217.865Z" fill="#21111D"/>
<path d="M124.03 209.906L124.344 209.704L121.586 204.929L121.25 205.13L124.03 209.906Z" fill="#21111D"/>
<path d="M123.714 212.17L124.027 211.946L121.247 207.305L120.934 207.529L123.714 212.17Z" fill="#21111D"/>
<path d="M202.566 221.855L202.835 221.698L200.526 218.694L200.234 218.874L202.566 221.855Z" fill="#21111D"/>
<path d="M202.626 223.582L202.895 223.402L200.81 220.779L200.541 220.959L202.626 223.582Z" fill="#21111D"/>
<path d="M119.293 199.01H263.114L263.158 198.651H119.697L129.09 130.743C129.314 129.062 130.929 127.694 132.677 127.694L132.722 127.335C130.772 127.335 128.978 128.86 128.732 130.743L119.293 199.01Z" fill="#21111D"/>
<path opacity="0.5" d="M253.455 194.19H131.18C128.848 194.19 127.256 192.307 127.615 189.975L135.507 138.388C135.865 136.056 138.04 134.173 140.372 134.173H262.647C264.979 134.173 266.57 136.056 266.212 138.388L258.32 189.975C257.961 192.307 255.787 194.19 253.455 194.19Z" fill="white"/>
<path opacity="0.5" d="M256.527 140.294H196.712L195.793 146.302H255.608L256.527 140.294Z" fill="#9BC1F9"/>
<path opacity="0.5" d="M255.16 149.239H195.345L194.426 155.247H254.241L255.16 149.239Z" fill="#9BC1F9"/>
<path opacity="0.5" d="M253.793 158.162H193.978L193.059 164.193H252.874L253.793 158.162Z" fill="#9BC1F9"/>
<path d="M208.012 140.294H196.712L195.793 146.302H207.092L208.012 140.294Z" fill="#9BC1F9"/>
<path d="M223.078 149.239H195.345L194.426 155.247H222.159L223.078 149.239Z" fill="#9BC1F9"/>
<path d="M207.295 158.162H193.978L193.059 164.193H206.376L207.295 158.162Z" fill="#9BC1F9"/>
<path d="M138.621 165.314H180.232L173.416 147.132L166.309 156.413L163.058 150.607L158.081 157.579L155.525 143.679L147.791 158.969L145.549 155.315L138.621 165.314Z" fill="#9BC1F9"/>
<path opacity="0.5" d="M250.989 176.411H139.139L139.766 172.197H251.639L250.989 176.411Z" fill="#9BC1F9"/>
<path d="M250.34 180.738H138.467L138.624 179.707H250.497L250.34 180.738Z" fill="#9BC1F9"/>
<path opacity="0.5" d="M249.734 184.684H137.861L138.018 183.653H249.891L249.734 184.684Z" fill="#9BC1F9"/>
<path d="M249.129 188.608H137.256L137.413 187.599H249.286L249.129 188.608Z" fill="#9BC1F9"/>
<path d="M352.844 232.415H370.376L360.287 183.271H385.15L395.239 232.415H412.704C415.17 232.415 417.905 234.41 418.847 236.876H350.064C349.145 234.41 350.378 232.415 352.844 232.415Z" fill="#0A161E"/>
<path d="M299.08 213.65L300.672 202.216L310.559 130.833C311.03 127.447 314.169 124.69 317.554 124.69H455.971L455.994 124.51C459.469 124.51 461.912 127.335 461.442 130.833L449.941 213.65C449.604 216.116 447.654 218.134 445.636 218.134H301.972L301.995 217.954C300.044 217.977 298.744 216.049 299.08 213.65Z" fill="#1E2B46"/>
<path d="M367.211 235.396H392.096L381.402 183.271H356.539L367.211 235.396Z" fill="#223749"/>
<path d="M296.236 202.216L306.123 130.833C306.594 127.447 309.733 124.69 313.118 124.69H451.536C454.921 124.69 457.297 127.447 456.827 130.833L446.94 202.216H296.236Z" fill="#49597D"/>
<path d="M446.937 202.216L445.345 213.65C445.009 216.026 443.17 217.954 441.242 217.954H297.579C295.628 217.954 294.328 216.026 294.664 213.65L296.256 202.216H446.937Z" fill="#1E2B46"/>
<path d="M300.178 199.122L309.594 131.034C309.841 129.241 311.544 127.806 313.383 127.806H450.321C452.159 127.806 453.459 129.263 453.213 131.034L443.796 199.122H300.178Z" fill="#8CD2F9"/>
<path d="M346.32 236.876C345.4 234.41 346.634 232.415 349.1 232.415H408.96C411.426 232.415 414.161 234.41 415.102 236.876H346.32Z" fill="#122330"/>
<path d="M297.531 218.157H441.217C443.257 218.157 445.186 216.139 445.522 213.673L456.978 130.855C457.471 127.38 455.028 124.533 451.53 124.533L451.485 124.892C454.781 124.892 457.068 127.56 456.619 130.855L445.163 213.65C444.849 215.937 443.1 217.775 441.262 217.775H297.599L297.531 218.157Z" fill="#21111D"/>
<path d="M304.705 210.197L305.041 209.996L302.261 205.22L301.947 205.422L304.705 210.197Z" fill="#21111D"/>
<path d="M304.391 212.462L304.728 212.238L301.925 207.597L301.611 207.821L304.391 212.462Z" fill="#21111D"/>
<path d="M383.243 222.169L383.512 221.99L381.203 218.986L380.934 219.165L383.243 222.169Z" fill="#21111D"/>
<path d="M383.306 223.873L383.575 223.694L381.49 221.071L381.221 221.25L383.306 223.873Z" fill="#21111D"/>
<path d="M299.971 199.302H443.791L443.836 198.943H300.374L309.768 131.035C309.992 129.353 311.606 127.986 313.355 127.986L313.4 127.627C311.449 127.627 309.656 129.151 309.409 131.035L299.971 199.302Z" fill="#21111D"/>
<path opacity="0.5" d="M433.148 193.562H312.554C310.268 193.562 308.653 191.679 308.99 189.347L316.186 137.715C316.5 135.384 318.63 133.5 320.939 133.5H441.533C443.82 133.5 445.434 135.384 445.098 137.715L437.901 189.347C437.587 191.656 435.458 193.562 433.148 193.562Z" fill="white"/>
<path opacity="0.5" d="M420.794 181.949H415.055L421.332 136.841H427.094L420.794 181.949Z" fill="#9BC1F9"/>
<path opacity="0.5" d="M412.79 181.702H407.051L411.423 150.36H417.162L412.79 181.702Z" fill="#9BC1F9"/>
<path opacity="0.5" d="M428.955 181.949H423.193L428.126 146.616H433.865L428.955 181.949Z" fill="#9BC1F9"/>
<path opacity="0.5" d="M404.763 181.702H399.023L404.135 144.979H409.874L404.763 181.702Z" fill="#9BC1F9"/>
<path opacity="0.5" d="M396.738 181.702H390.977L394.586 155.853H400.325L396.738 181.702Z" fill="#9BC1F9"/>
<path d="M420.794 181.949H415.055L419.92 146.997H425.681L420.794 181.949Z" fill="#9BC1F9"/>
<path d="M412.79 181.702H407.051L410.414 157.579H416.153L412.79 181.702Z" fill="#9BC1F9"/>
<path d="M428.955 181.949H423.193L427.027 154.507H432.766L428.955 181.949Z" fill="#9BC1F9"/>
<path d="M404.765 181.702H399.025L402.949 153.431H408.711L404.765 181.702Z" fill="#9BC1F9"/>
<path d="M396.738 181.702H390.977L393.757 161.816H399.496L396.738 181.702Z" fill="#9BC1F9"/>
<path d="M435.793 144.194L430.703 147.4L432.206 147.669L421.624 161.323L417.409 152.534L404.719 174.08L400.213 168.228L394.743 176.523L392.859 174.797L388.174 181.971L389.384 182.666L393.016 177.106L394.9 178.832L400.191 170.784L404.787 176.747L417.185 155.673L421.22 164.103L433.327 148.454L434.044 149.777L435.793 144.194Z" fill="#5183BF"/>
<path d="M320.825 182.711H319.346L320.422 174.954H321.902L320.825 182.711Z" fill="#9BC1F9"/>
<path d="M323.651 181.747H322.148L322.978 175.918H324.458L323.651 181.747Z" fill="#9BC1F9"/>
<path d="M326.207 182.711H324.705L325.804 174.954H327.283L326.207 182.711Z" fill="#9BC1F9"/>
<path d="M328.426 186.051H326.924L328.986 171.367H330.466L328.426 186.051Z" fill="#86B6EF"/>
<path d="M331.362 184.213H329.883L331.385 173.474H332.865L331.362 184.213Z" fill="#9BC1F9"/>
<path d="M355.397 186.051H353.895L355.957 171.367H357.437L355.397 186.051Z" fill="#86B6EF"/>
<path d="M358.445 183.428H356.965L358.243 174.236H359.722L358.445 183.428Z" fill="#9BC1F9"/>
<path d="M361.293 180.985H359.791L360.396 176.68H361.898L361.293 180.985Z" fill="#9BC1F9"/>
<path d="M363.535 182.263H362.033L362.997 175.402H364.499L363.535 182.263Z" fill="#9BC1F9"/>
<path d="M365.508 185.872H364.006L365.979 171.793H367.458L365.508 185.872Z" fill="#86B6EF"/>
<path d="M368.624 181.747H367.145L367.952 175.918H369.431L368.624 181.747Z" fill="#9BC1F9"/>
<path d="M371.025 183.428H369.545L370.823 174.236H372.325L371.025 183.428Z" fill="#9BC1F9"/>
<path d="M373.085 186.298H371.605L373.69 171.367H375.17L373.085 186.298Z" fill="#86B6EF"/>
<path d="M375.977 182.98H374.475L375.708 174.236H377.187L375.977 182.98Z" fill="#9BC1F9"/>
<path d="M378.803 180.85H377.301L377.929 176.366H379.408L378.803 180.85Z" fill="#9BC1F9"/>
<path d="M381.36 179.931H379.857L380.239 177.286H381.718L381.36 179.931Z" fill="#9BC1F9"/>
<path d="M318.562 180.514H317.082L317.598 176.68H319.1L318.562 180.514Z" fill="#9BC1F9"/>
<path d="M344.388 186.051H342.908L344.948 171.367H346.45L344.388 186.051Z" fill="#86B6EF"/>
<path d="M347.348 184.213H345.846L347.348 173.474H348.827L347.348 184.213Z" fill="#9BC1F9"/>
<path d="M334.39 181.747H332.91L333.717 175.918H335.219L334.39 181.747Z" fill="#9BC1F9"/>
<path d="M337.193 180.985H335.713L336.296 176.68H337.798L337.193 180.985Z" fill="#9BC1F9"/>
<path d="M350.6 181.747H349.098L349.905 175.918H351.407L350.6 181.747Z" fill="#9BC1F9"/>
<path d="M353.043 183.428H351.541L352.841 174.236H354.321L353.043 183.428Z" fill="#9BC1F9"/>
<path d="M339.703 182.263H338.201L339.165 175.402H340.667L339.703 182.263Z" fill="#9BC1F9"/>
<path d="M342.236 183.428H340.734L342.012 174.236H343.514L342.236 183.428Z" fill="#9BC1F9"/>
<path d="M341.357 159.877C346.881 154.23 347.383 145.763 342.479 140.967C337.575 136.171 329.122 136.861 323.599 142.508C318.075 148.156 317.573 156.622 322.477 161.418C327.381 166.215 335.834 165.525 341.357 159.877Z" fill="#9BC1F9"/>
<path opacity="0.5" d="M371.383 137.805C364.389 138.231 358.089 144.06 357.102 151.189C356.116 158.319 360.779 164.148 367.662 164.574L371.383 137.805Z" fill="#9BC1F9"/>
<path d="M371.227 150.943L382.862 144.665C381.27 140.787 377.661 138.074 373.065 137.805L371.227 150.943Z" fill="#86B6EF"/>
<path d="M370.935 152.893L369.299 164.574C376.294 164.148 382.594 158.319 383.58 151.189C383.827 149.418 383.715 147.737 383.333 146.19L370.935 152.893Z" fill="#9BC1F9"/>
<path d="M254.801 144.71V159.709C254.801 159.709 255.003 164.776 250.586 165.403L251.416 172.174C251.73 174.685 250.227 177.084 247.806 177.868C246.618 178.25 245.205 178.519 243.614 178.519C238.547 178.519 235.789 174.707 235.386 172.824C234.96 170.918 236.238 161.839 236.238 161.839L236.081 157.377L236.664 140.092L254.801 144.71Z" fill="#FE9F73"/>
<path d="M237.238 140.899L240.781 145.898C240.781 145.898 251.497 150.068 256.99 145.136C262.483 140.204 260.801 137.85 259.187 135.384C258.402 134.173 254.613 131.684 249.95 133.747C247.417 134.868 245.534 131.505 242.574 133.209C239.615 134.89 236.14 137.827 236.521 138.993C236.902 140.136 237.238 140.899 237.238 140.899Z" fill="#21111D"/>
<path d="M237.443 138.791C237.443 138.791 232.555 138.567 231.21 143.253C229.842 147.938 231.681 150.404 231.726 151.794C231.771 153.184 230.829 162.623 237.443 161.928L239.236 146.346L236.927 140.136L237.443 138.791Z" fill="#21111D"/>
<path d="M251.553 146.167C251.553 146.167 251.956 150.584 251.553 151.772C251.149 152.983 246.351 156.189 246.351 156.189C246.351 156.189 245.948 164.596 245.141 165C244.334 165.403 237.227 163.856 234.985 161.614C232.72 159.395 235.142 141.751 235.142 141.751C235.142 141.751 237.137 139.352 239.155 138.948C241.15 138.545 250.768 137.738 250.365 138.948C249.939 140.159 251.553 146.167 251.553 146.167Z" fill="#21111D"/>
<path d="M246.606 157.669C248.662 157.669 250.328 155.963 250.328 153.858C250.328 151.753 248.662 150.047 246.606 150.047C244.551 150.047 242.885 151.753 242.885 153.858C242.885 155.963 244.551 157.669 246.606 157.669Z" fill="#FE9F73"/>
<path d="M246.345 156.189C245.582 156.189 245.044 155.607 244.887 155.001C244.686 154.306 244.91 153.611 245.47 153.275C246.3 152.759 247.04 153.096 247.421 153.342C247.264 152.916 247.017 152.602 246.658 152.401C245.919 151.997 245.022 152.289 244.999 152.289C244.955 152.311 244.887 152.266 244.865 152.221C244.843 152.176 244.887 152.109 244.932 152.087C244.977 152.064 245.941 151.75 246.748 152.221C247.219 152.49 247.533 152.961 247.69 153.611L247.779 153.97L247.51 153.701C247.466 153.656 246.591 152.782 245.538 153.454C244.955 153.813 244.91 154.486 245.044 154.956C245.179 155.427 245.605 155.988 246.3 155.988H246.322C246.389 155.988 246.434 156.033 246.434 156.1C246.457 156.145 246.412 156.189 246.345 156.189Z" fill="#F07162"/>
<path d="M253.051 173.004L252.267 169.035L234.017 166.188L232.762 170.941L240.945 173.004H253.051Z" fill="#EF3A4C"/>
<path d="M350.532 226.16C350.532 226.16 362.257 226.227 365.328 228.895C368.4 231.563 369.14 236.293 369.14 236.293H345.936L350.532 226.16Z" fill="#FE9F73"/>
<path d="M255.706 388.32L233.309 384.8L238.084 360.901L262.409 364.039L255.706 388.32Z" fill="#FE9F73"/>
<path d="M232.946 393.656H254.021L262.563 384.105L278.189 393.656H281.552C282.718 393.656 283.771 394.463 283.995 395.628C284.287 397.198 283.121 398.565 281.641 398.565H232.633C232.274 398.565 231.982 398.274 231.982 397.893V394.62C232.005 394.081 232.431 393.656 232.946 393.656Z" fill="#E02742"/>
<path d="M233.115 393.678V384.8C233.115 384.8 236.657 379.89 242.061 382.401C242.061 382.401 250.244 388.342 257.44 381.145L275.331 389.284C275.331 389.284 280.241 390.965 281.564 393.655H233.115V393.678Z" fill="#F7597F"/>
<path d="M233.3 384.799H232.941V393.633H233.3V384.799Z" fill="black"/>
<path d="M249.426 384.911C250.121 384.911 250.524 384.844 250.547 384.844L250.502 384.486C250.457 384.486 246.242 385.091 242.229 382.266L242.027 382.58C244.875 384.598 247.856 384.911 249.426 384.911Z" fill="black"/>
<path d="M237.49 392.019L237.692 391.727L235.405 390.135L235.203 390.449L237.49 392.019Z" fill="black"/>
<path d="M239.134 391.57L239.336 391.279L237.049 389.687L236.848 390.001L239.134 391.57Z" fill="black"/>
<path d="M283.32 398.139C283.903 397.646 284.239 396.906 284.239 396.121C284.239 394.664 283.073 393.476 281.661 393.476H233.212C232.45 393.476 231.822 394.104 231.822 394.888V397.332H232.181V394.888C232.181 394.305 232.629 393.835 233.212 393.835H281.661C282.894 393.835 283.88 394.866 283.88 396.121C283.88 396.794 283.589 397.422 283.095 397.848L283.32 398.139Z" fill="black"/>
<path d="M281.49 393.744L281.804 393.587C281.76 393.498 280.773 391.435 277.119 389.843C273.509 388.274 257.681 381.077 257.524 380.988L257.367 381.324C257.524 381.391 273.352 388.61 276.962 390.18C280.526 391.727 281.49 393.722 281.49 393.744Z" fill="black"/>
<path d="M314.676 388.319L292.279 384.799L297.055 360.9L321.38 364.039L314.676 388.319Z" fill="#FE9F73"/>
<path d="M291.925 393.656H312.999L321.541 384.105L337.167 393.656H340.53C341.696 393.656 342.75 394.463 342.974 395.629C343.265 397.198 342.1 398.566 340.62 398.566H291.611C291.252 398.566 290.961 398.274 290.961 397.893V394.62C290.961 394.082 291.387 393.656 291.925 393.656Z" fill="#EF3A4C"/>
<path d="M292.107 393.678V384.8C292.107 384.8 295.65 379.89 301.053 382.401C301.053 382.401 309.236 388.342 316.432 381.146L334.323 389.284C334.323 389.284 339.233 390.965 340.556 393.656H292.107V393.678Z" fill="#F7597F"/>
<path d="M292.292 384.8H291.934V393.633H292.292V384.8Z" fill="black"/>
<path d="M308.389 384.912C309.084 384.912 309.487 384.845 309.51 384.845L309.465 384.486C309.42 384.486 305.205 385.091 301.192 382.266L300.99 382.58C303.837 384.598 306.819 384.912 308.389 384.912Z" fill="black"/>
<path d="M296.451 392.019L296.653 391.728L294.366 390.136L294.164 390.45L296.451 392.019Z" fill="black"/>
<path d="M298.093 391.57L298.295 391.279L296.008 389.687L295.807 390.001L298.093 391.57Z" fill="black"/>
<path d="M342.286 398.139C342.869 397.646 343.206 396.906 343.206 396.121C343.206 394.664 342.04 393.476 340.627 393.476H292.179C291.417 393.476 290.789 394.104 290.789 394.888V397.332H291.148V394.888C291.148 394.305 291.596 393.835 292.179 393.835H340.627C341.861 393.835 342.847 394.866 342.847 396.121C342.847 396.794 342.555 397.422 342.062 397.848L342.286 398.139Z" fill="black"/>
<path d="M340.467 393.745L340.781 393.588C340.736 393.499 339.75 391.436 336.095 389.844C332.486 388.275 316.658 381.078 316.501 380.989L316.344 381.325C316.501 381.392 332.329 388.611 335.938 390.18C339.481 391.727 340.445 393.723 340.467 393.745Z" fill="black"/>
<path d="M278.793 272.344C273.099 257.143 255.387 253.512 255.387 253.512C255.387 253.512 217.566 248.49 211.378 258.915C198.621 280.415 211.759 298.53 222.991 301.041C225.727 301.646 230.345 301.31 235.524 301.467C239.694 301.601 246.734 301.31 246.734 301.31L235.21 366.528C245.478 369.016 262.853 369.51 262.853 369.51C276.888 336.306 281.17 278.644 278.793 272.344Z" fill="#4CB7D8"/>
<path d="M337.187 287.23C337.747 269.541 273.852 266.223 273.852 266.223C273.852 266.223 237.869 253.579 231.681 264.004C218.924 285.504 232.062 303.619 243.294 306.13C246.029 306.735 250.648 306.376 255.827 306.556C270.713 307.071 291.451 306.78 294.612 306.735L304.566 306.399L293.043 371.617C303.311 374.106 320.686 374.599 320.686 374.599C334.676 341.396 336.962 293.956 337.187 287.23Z" fill="#4CB7D8"/>
<path d="M351.384 224.523L306.142 218.156C306.142 218.156 278.095 182.464 274.284 179.909C270.45 177.353 253.882 170.358 225.208 170.986C196.534 171.613 191.422 233.446 191.422 233.446C191.422 233.446 236.597 285.392 238.592 285.706C265.809 289.921 275.584 266.335 275.584 266.335L272.939 224.478L287.399 236.293H351.384V224.523Z" fill="#FFD4E0"/>
<path d="M223.477 269.429C223.657 269.407 223.814 269.272 223.814 269.071C223.679 253.601 223.006 187.643 223.006 187.397C223.006 187.195 222.85 187.038 222.648 187.038C222.446 187.038 222.289 187.195 222.289 187.397C222.289 187.621 222.962 253.601 223.096 269.071C223.096 269.295 223.253 269.452 223.477 269.429Z" fill="black"/>
<path d="M255.423 189.415L263.651 298.194C264.055 303.395 262.732 307.587 260.692 307.587H200.047C198.029 307.587 196.079 303.372 195.675 298.194L187.447 189.415C187.044 184.213 188.367 180.021 190.407 180.021H251.074C253.069 180.021 255.042 184.236 255.423 189.415Z" fill="#F99247"/>
<path d="M251.953 189.415L260.181 298.194C260.585 303.395 259.262 307.587 257.222 307.587H196.555C194.537 307.587 192.587 303.372 192.183 298.194L183.955 189.415C183.552 184.213 184.874 180.021 186.915 180.021H247.582C249.599 180.021 251.55 184.236 251.953 189.415Z" fill="#FEC786"/>
<path d="M298.902 300.279H203.172C201.356 300.279 199.854 301.916 199.854 303.933C199.854 305.951 201.333 307.588 203.172 307.588H298.902C300.718 307.588 302.221 305.951 302.221 303.933C302.221 301.916 300.718 300.279 298.902 300.279Z" fill="#F99247"/>
<path d="M260.069 300.279H203.393C201.442 300.279 199.873 301.916 199.873 303.933C199.873 305.951 201.442 307.588 203.393 307.588H260.069C260.159 307.588 260.607 307.588 260.697 307.588C262.513 307.431 263.589 305.839 263.589 303.933C263.611 301.916 262.02 300.279 260.069 300.279Z" fill="#FEC786"/>
<path d="M260.109 297.543L260.715 307.587H267.284L263.248 300.278L260.109 297.543Z" fill="#F99247"/>
<path d="M269.438 392.803H246.01V307.587H240.808V392.803H218.008C214.824 392.803 212.246 395.382 212.246 398.565H240.831H246.032H275.222C275.222 395.382 272.622 392.803 269.438 392.803Z" fill="#1E2B46"/>
<path d="M189.896 271.918L183.91 192.845C183.035 187.105 184.089 183.182 184.784 181.366C185.367 179.841 186.735 179.617 187.407 179.729H246.505V180.335H187.34H187.317C187.273 180.335 185.905 180.11 185.345 181.59C184.672 183.361 183.663 187.15 184.515 192.777L190.501 271.873L189.896 271.918Z" fill="black"/>
<path d="M253.678 208.217L253.074 208.263L259.254 289.954L259.857 289.908L253.678 208.217Z" fill="black"/>
<path d="M298.901 307.295H196.557V307.901H298.901V307.295Z" fill="black"/>
<path d="M206.695 275.017L206.201 275.366L211.989 283.548L212.483 283.198L206.695 275.017Z" fill="black"/>
<path d="M206.693 282.174L206.199 282.523L211.987 290.705L212.481 290.355L206.693 282.174Z" fill="black"/>
<path d="M269.444 393.117H245.725V307.587H246.352V392.512H269.444V393.117Z" fill="black"/>
<path d="M351.07 232.146H351.676V224.254L306.276 217.865C304.797 216.004 282.96 188.473 278.006 183.249C277.916 183.137 275.45 180.402 273.342 179.012C271.482 177.801 264.083 173.676 247.358 171.793L247.291 172.398C263.881 174.259 271.168 178.317 273.006 179.528C275.046 180.85 277.512 183.63 277.535 183.653C282.624 189.033 305.626 218.044 305.851 218.336L305.918 218.425L351.026 224.77V232.146H351.07Z" fill="black"/>
<path d="M268.385 276.984C271.972 273.891 275.694 266.784 275.851 266.47L275.896 266.403L273.25 224.456L272.645 224.501L275.29 266.268C274.887 267.053 271.322 273.666 268.004 276.514L268.385 276.984Z" fill="black"/>
<path d="M270.553 222.157L270.17 222.626L287.199 236.544L287.582 236.075L270.553 222.157Z" fill="black"/>
<path d="M63.072 138.612L62.3545 138.792L62.2649 138.433C61.951 137.088 61.6595 135.72 61.4353 134.375L61.3681 134.016L62.1079 133.882L62.1752 134.24C62.4218 135.586 62.6908 136.931 63.0047 138.253L63.072 138.612ZM61.5923 130.541L60.8524 130.631L60.8076 130.25C60.6282 128.86 60.4937 127.47 60.4265 126.125L60.404 125.743L61.1439 125.699L61.1663 126.08C61.256 127.425 61.3905 128.792 61.5474 130.16L61.5923 130.541ZM107.261 108.839C106.678 109.063 106.072 109.22 105.445 109.332L105.086 109.4L104.951 108.66L105.31 108.593C105.893 108.48 106.476 108.324 106.992 108.122C107.687 107.853 108.337 107.516 108.92 107.09L109.234 106.866L109.66 107.472L109.346 107.696C108.74 108.167 108.023 108.548 107.261 108.839ZM101.544 109.422L101.185 109.332C99.8174 109.019 98.6292 108.211 97.6203 106.934L97.3961 106.642L97.979 106.171L98.2032 106.463C99.1 107.584 100.154 108.301 101.342 108.593L101.701 108.682L101.544 109.422ZM111.991 104.826L111.341 104.467L111.52 104.131C112.126 103.033 112.552 101.755 112.776 100.365L112.843 100.006L113.583 100.118L113.516 100.477C113.269 101.956 112.821 103.302 112.17 104.49L111.991 104.826ZM61.0094 122.358H60.2695V121.977C60.2695 120.565 60.3144 119.175 60.404 117.829L60.4265 117.448L61.1663 117.493L61.1439 117.874C61.0542 119.197 61.0094 120.587 61.0094 121.977V122.358ZM96.5666 103.279L95.8491 103.503L95.737 103.145C95.3559 101.889 95.0869 100.499 94.9748 99.0195L94.9524 98.6384L95.6922 98.5711L95.7146 98.9522C95.8267 100.387 96.0733 101.71 96.432 102.92L96.5666 103.279ZM113.673 96.6655L112.933 96.7327L112.91 96.3516C112.798 95.0289 112.529 93.7061 112.126 92.3834L112.014 92.0247L112.731 91.8005L112.843 92.1592C113.269 93.5268 113.538 94.8943 113.65 96.2843L113.673 96.6655ZM61.525 114.175L60.7852 114.063L60.83 113.704C61.0318 112.314 61.3008 110.947 61.6147 109.624L61.7044 109.265L62.4218 109.445L62.3321 109.803C62.0182 111.104 61.7716 112.449 61.5699 113.816L61.525 114.175ZM95.737 95.2755L94.9972 95.2082L95.0196 94.8271C95.1317 93.4819 95.3559 92.0919 95.6698 90.7019L95.7595 90.3432L96.4993 90.5001L96.4096 90.8588C96.0958 92.204 95.894 93.5716 95.7819 94.8719L95.737 95.2755ZM110.713 88.998L110.534 88.6617C110.265 88.1909 109.996 87.7425 109.704 87.3166C109.234 86.644 108.74 85.9938 108.18 85.4109L107.911 85.1419L108.449 84.6262L108.718 84.8953C109.301 85.5006 109.839 86.1732 110.332 86.8906C110.624 87.339 110.915 87.8098 111.184 88.303L111.363 88.6393L110.713 88.998ZM63.341 106.216L62.6236 105.97L62.7357 105.611C63.1841 104.288 63.6997 102.988 64.2826 101.755L64.4395 101.418L65.1121 101.732L64.9552 102.069C64.3947 103.279 63.8791 104.557 63.4307 105.857L63.341 106.216ZM97.4185 87.3166L96.7235 87.07L96.858 86.7112C97.3288 85.4333 97.8669 84.133 98.4722 82.8775L98.6292 82.5412L99.3017 82.8775L99.1448 83.2138C98.5395 84.4469 98.0014 85.7024 97.553 86.9803L97.4185 87.3166ZM66.7039 98.8177L66.0762 98.4366L66.2779 98.1227C66.9954 96.9345 67.8025 95.7911 68.6544 94.715L68.8786 94.4235L69.4615 94.8943L69.2373 95.1858C68.4078 96.2395 67.6231 97.3605 66.9057 98.5263L66.7039 98.8177ZM105.355 83.1466L105.041 82.9672C103.92 82.317 102.665 81.8014 101.319 81.4427L100.961 81.353L101.163 80.6356L101.521 80.7253C102.911 81.1064 104.234 81.6445 105.422 82.317L105.736 82.4964L105.355 83.1466ZM71.681 92.3609L71.1429 91.8453L71.412 91.5763C72.376 90.5898 73.4073 89.6482 74.4834 88.7738L74.7749 88.5272L75.2457 89.1101L74.9542 89.3567C73.9005 90.2311 72.8917 91.1503 71.95 92.1143L71.681 92.3609ZM100.916 79.963L100.288 79.5595L100.49 79.2456C101.207 78.0798 102.014 76.9364 102.866 75.8378L103.091 75.5464L103.674 75.9948L103.449 76.2862C102.62 77.3624 101.813 78.4833 101.118 79.6267L100.916 79.963ZM97.71 80.8374L97.3288 80.8149C96.0285 80.7477 94.6609 80.7925 93.2709 80.9719L92.8898 81.0167L92.8001 80.2769L93.1812 80.232C94.6161 80.0527 96.0061 80.0078 97.3512 80.0751L97.7324 80.0975L97.71 80.8374ZM77.9136 87.0924L77.4876 86.4646L77.8015 86.2629C78.9673 85.4782 80.1556 84.7608 81.3662 84.1106L81.7025 83.9312L82.0612 84.5814L81.7249 84.7608C80.5367 85.3885 79.3709 86.1059 78.2275 86.8682L77.9136 87.0924ZM89.639 81.6669L89.2803 81.7566C88.0024 82.0929 86.702 82.5412 85.4241 83.0569L85.0878 83.1914L84.8188 82.4964L85.1551 82.3619C86.4554 81.8238 87.8006 81.3979 89.1009 81.0391L89.4596 80.9495L89.639 81.6669ZM105.848 73.4838L105.31 72.9682L105.579 72.6991C106.521 71.7127 107.575 70.771 108.673 69.8967L108.965 69.6725L109.435 70.2554L109.144 70.4796C108.068 71.3315 107.059 72.2507 106.117 73.2148L105.848 73.4838ZM140.038 59.808L139.657 59.8304C138.289 59.9425 136.922 60.0994 135.576 60.3012L135.195 60.346L135.083 59.6062L135.464 59.5613C136.832 59.3596 138.222 59.2026 139.589 59.0905L139.971 59.0681L140.038 59.808ZM131.9 60.9065L131.541 60.9738C130.173 61.2428 128.828 61.5343 127.528 61.8705L127.169 61.9602L126.99 61.2428L127.348 61.1531C128.671 60.8168 130.016 60.5254 131.384 60.2563L131.743 60.1891L131.9 60.9065ZM112.126 68.3049L111.722 67.6772L112.036 67.4754C113.179 66.758 114.39 66.063 115.645 65.4352L115.982 65.2559L116.318 65.9285L115.982 66.1078C114.749 66.7356 113.538 67.4081 112.417 68.1256L112.126 68.3049ZM123.941 62.9018L123.582 63.0139C122.259 63.4399 120.981 63.9107 119.726 64.4039L119.39 64.5385L119.098 63.8434L119.434 63.7089C120.712 63.1933 121.99 62.7225 123.335 62.2965L123.694 62.1844L123.941 62.9018Z" fill="#3F567E"/>
<path d="M149.292 63.3282L151.96 58.3063C151.96 58.3063 169.604 52.1409 169.829 51.9392C170.053 51.7598 178.281 44.9219 178.281 44.9219L166.421 46.962L147.947 54.1587L149.292 63.3282Z" fill="#F99247"/>
<path d="M141.453 45.7962L178.288 44.9219L147.955 54.1587L141.453 45.7962Z" fill="#FEC786"/>
<path d="M151.965 58.2838L158.825 67.2068L178.285 44.9219L151.965 58.2838Z" fill="#FEC786"/>
<path d="M539.773 317.72C539.773 317.72 538.158 295.077 529.348 299.471C520.559 303.865 513.385 332.719 512.421 333.593C511.457 334.445 511.748 360.833 511.748 360.833L521.972 355.676C521.994 355.676 524.729 292.611 539.773 317.72Z" fill="#258D8C"/>
<path d="M529.935 270.82C529.935 270.82 510.228 288.441 504.848 318.663C499.467 348.884 516.461 357.784 516.461 357.784C516.461 357.784 518.882 294.248 529.935 270.82Z" fill="#7FC6A6"/>
<path d="M493.366 361.887C493.366 361.887 490.071 297.543 473.436 269.653C473.436 269.653 502.626 287.073 512.311 332.787C512.849 335.365 513.185 338.212 513.589 340.97C514.015 343.839 514.284 346.373 514.216 348.906C514.104 353.39 513.477 357.224 513.297 360.049C511.728 384.486 493.366 361.887 493.366 361.887Z" fill="#258D8C"/>
<path d="M493.945 334.557C492.824 325.388 489.327 316.644 483.722 309.291C479.686 303.977 475.001 299.942 471.346 302.811C463.23 309.223 461.594 348.973 461.594 348.973C461.594 348.973 470.763 321.442 474.776 323.258C478.789 325.074 482.511 362.447 482.511 362.447L497.51 363.68L493.945 334.557Z" fill="#7FC6A6"/>
<path d="M514.392 359.645C514.997 345.588 513.248 332.114 509.145 319.581C505.872 309.537 501.119 300.076 494.999 291.467C484.574 276.783 473.678 269.541 473.566 269.451L473.297 269.855C473.409 269.922 484.238 277.141 494.618 291.759C504.191 305.233 515.288 327.966 513.898 359.622L514.392 359.645Z" fill="black"/>
<path d="M516.703 357.806C516.703 357.649 517.331 341.709 519.281 323.123C521.097 305.973 524.438 282.993 530.132 270.931L529.684 270.729C523.967 282.858 520.604 305.883 518.788 323.079C516.815 341.687 516.21 357.649 516.188 357.806H516.703Z" fill="#21111D"/>
<path d="M522.238 355.676C522.238 355.564 522.709 345.206 524.234 334.714C526.229 320.904 529.121 313.147 532.596 312.25C534.636 311.734 536.99 313.617 539.569 317.855L539.995 317.608C537.304 313.169 534.771 311.196 532.484 311.779C528.762 312.743 525.825 320.433 523.763 334.647C522.238 345.162 521.768 355.564 521.768 355.654L522.238 355.676Z" fill="#21111D"/>
<path d="M497.295 363.726L497.766 363.658L494.178 334.513C493.035 325.209 489.493 316.443 483.91 309.134C480.39 304.494 477.252 301.983 474.606 301.646C473.351 301.489 472.207 301.803 471.176 302.61C467.746 305.301 465.056 313.932 463.172 328.258C461.76 338.885 461.356 348.862 461.334 348.951L461.827 348.974C461.85 348.57 463.531 309.246 471.49 302.991C472.409 302.274 473.441 301.983 474.539 302.117C477.05 302.431 480.077 304.897 483.507 309.403C489.022 316.645 492.542 325.344 493.663 334.558L497.295 363.726Z" fill="#21111D"/>
<path d="M481.722 327.798L481.283 328.024L484.438 334.141L484.877 333.915L481.722 327.798Z" fill="#21111D"/>
<path d="M481.698 331.899L481.266 332.137L484.413 337.851L484.845 337.613L481.698 331.899Z" fill="#21111D"/>
<path d="M516.615 291.365L513.92 297.282L514.369 297.486L517.064 291.57L516.615 291.365Z" fill="#21111D"/>
<path d="M516.258 295.983L513.965 300.121L514.396 300.36L516.689 296.222L516.258 295.983Z" fill="#21111D"/>
<path d="M531.719 301.649L527.125 303.991L527.349 304.43L531.943 302.089L531.719 301.649Z" fill="#21111D"/>
<path d="M529.774 304.334L527.055 305.988L527.311 306.41L530.031 304.755L529.774 304.334Z" fill="#21111D"/>
<path d="M527.201 354.04C527.201 354.04 526.349 401.076 513.749 399.978H503.84H502.248H492.338C479.739 401.076 478.887 354.04 478.887 354.04C490.814 352.224 515.296 352.224 527.201 354.04Z" fill="#FEC786"/>
<path d="M483.952 360.064L483.594 360.403L497.358 374.942L497.716 374.603L483.952 360.064Z" fill="#21111D"/>
<path d="M487.999 369.431L487.627 369.754L495.203 378.467L495.576 378.143L487.999 369.431Z" fill="#21111D"/>
<path d="M630.662 397.668H19.0605V400H630.662V397.668Z" fill="#1E2B46"/>
</svg>
