<svg width="194" height="43" viewBox="0 0 194 43" fill="none" xmlns="http://www.w3.org/2000/svg">
<path d="M62.444 8.29895V12.0626H52.7938V18.273H61.0209V22.1618H52.7938V28.5288H62.8872V32.4813H48.4276V8.29895H62.444Z" fill="#021734"/>
<path d="M81.5866 32.4511H77.3467L70.1953 17.1451L70.5753 26.3043V32.4522H66.2407V8.33026H70.5753L77.7267 24.2331L77.252 14.0388V8.33026H81.5866V32.4511Z" fill="#021734"/>
<path d="M93.8305 18.7124H102.026V24.9854C102.026 30.286 99.4945 32.5753 93.7042 32.5753C87.9138 32.5753 85.5728 30.286 85.5728 25.0793V15.387C85.5728 10.4631 87.8191 8.17273 93.7042 8.17273C99.5892 8.17273 102.026 10.2116 102.026 15.387H97.6598C97.6598 13.129 97.0904 12 93.7052 12C90.5411 12 89.9401 13.4118 89.9401 15.6071V25.0793C89.9401 27.3686 90.5411 28.6864 93.7052 28.6864C96.8694 28.6864 97.9767 27.3686 97.9767 24.9854V22.6325H93.8315V18.7124H93.8305Z" fill="#021734"/>
<path d="M119.967 8.29895V12.0626H110.316V18.273H118.543V22.1618H110.316V28.5288H120.41V32.4813H105.949V8.29895H119.967Z" fill="#021734"/>
<path d="M131.958 23.4808L137.116 32.451H135.153L130.155 23.5121H126.611V32.451H124.934V8.23633H130.819C134.806 8.23633 136.672 9.74199 136.672 15.3254V17.1764C136.672 21.6297 135.153 23.198 131.958 23.4808ZM130.819 22.0377C134.237 22.0377 135.09 21.0026 135.09 17.1451V15.3254C135.09 11.3729 134.458 9.83589 130.819 9.83589H126.611V22.0366H130.819V22.0377Z" fill="#021734"/>
<path d="M142.811 32.451H141.134V8.23633H142.811V32.451Z" fill="#021734"/>
<path d="M157.903 13.3804C157.872 10.4317 155.973 9.33402 153.157 9.33402C149.867 9.33402 148.031 10.3691 148.031 14.3216C148.031 18.7123 150.657 18.6497 154.391 19.089C157.967 19.5596 160.023 21.8801 160.023 25.4246C160.023 31.3836 157.143 32.7015 152.903 32.7015C148.6 32.6702 146.417 30.8504 146.417 26.9616H147.936C147.936 29.9416 149.645 31.1958 152.935 31.1958C156.985 31.1645 158.409 29.5649 158.409 25.3933C158.409 21.0965 155.371 20.5633 151.732 20.218C149.2 19.9676 146.479 18.8688 146.479 14.3216C146.479 9.77331 148.757 7.95464 153.188 7.92334C156.604 7.92334 159.231 9.08362 159.421 13.3804H157.903Z" fill="#021734"/>
<path d="M175.117 14.4155C175.117 10.9962 174.167 9.30274 170.181 9.30274C165.214 9.30274 164.865 12.0626 164.865 15.9838V24.6098C164.865 28.7814 165.214 31.2282 170.181 31.2282C174.295 31.2282 174.99 29.5973 175.148 26.1154H176.604C176.446 30.4748 175.211 32.6713 170.181 32.6713C164.58 32.6713 163.315 30.1305 163.315 24.6734V16.1111C163.315 10.7167 164.485 7.92444 170.181 7.92444C175.181 7.92444 176.604 10.0259 176.604 14.4166H175.117V14.4155Z" fill="#021734"/>
<path d="M179.324 24.7036V15.9524C179.324 10.4003 180.526 7.98584 186.411 7.98584C192.296 7.98584 193.498 10.4014 193.498 15.9837V24.6722C193.498 30.1293 192.201 32.6701 186.411 32.6701C180.622 32.6701 179.324 30.1293 179.324 24.7036ZM180.906 16.0463V24.6086C180.906 28.4985 181.064 31.227 186.412 31.227C191.759 31.227 191.917 28.5924 191.917 24.6086V16.0463C191.917 11.9373 191.759 9.42782 186.412 9.42782C181.065 9.4289 180.906 11.8434 180.906 16.0463Z" fill="#021734"/>
<path d="M49.1375 36.1511H49.5317V41.1235C49.5317 42.3086 49.1745 42.6562 48.2262 42.6562H48.0803V42.287H48.2479C49.0058 42.287 49.1375 41.8963 49.1375 41.1311V36.1511Z" fill="#021734"/>
<path d="M50.6249 38.6734C50.6249 37.1559 51.631 36.0787 53.1836 36.0787C54.7363 36.0787 55.7358 37.1559 55.7358 38.6734C55.7358 40.2061 54.7374 41.2822 53.1836 41.2822C51.631 41.2822 50.6249 40.205 50.6249 38.6734ZM55.3275 38.6875C55.3275 37.293 54.4521 36.4252 53.1836 36.4252C51.9151 36.4252 51.0321 37.293 51.0321 38.6875C51.0321 40.0971 51.914 40.9357 53.1836 40.9357C54.4532 40.9357 55.3275 40.0971 55.3275 38.6875Z" fill="#021734"/>
<path d="M60.2784 41.2099L58.754 38.9832H57.2231V41.2099H56.829V36.15H59.0023C60.0889 36.15 60.6725 36.7209 60.6725 37.5736C60.6725 38.3691 60.1619 38.9109 59.207 38.9756L60.7379 41.2088H60.2784V41.2099ZM57.2242 36.4975V38.6367H59.0622C59.747 38.6367 60.2653 38.2752 60.2653 37.5887C60.2653 36.8871 59.7481 36.4975 59.0622 36.4975H57.2242Z" fill="#021734"/>
<path d="M65.667 36.151H66.0611V40.9648C66.0611 41.1526 65.9588 41.2541 65.7911 41.2541C65.6452 41.2541 65.5581 41.1678 65.4481 41.0231L62.2252 36.7943V41.2109H61.8311V36.3615C61.8311 36.1877 61.9258 36.1089 62.0499 36.1089C62.1446 36.1089 62.2176 36.1737 62.3199 36.2968L65.667 40.6918V36.151Z" fill="#021734"/>
<path d="M70.8737 41.2099L70.2607 39.6416H67.825L67.2055 41.2099H66.7896L68.7581 36.3313C68.8169 36.1651 68.9182 36.1068 69.0499 36.1068C69.1741 36.1068 69.2764 36.1651 69.3341 36.3313L71.2886 41.2099H70.8737ZM67.9568 39.3092H70.1301L69.051 36.5623L67.9568 39.3092Z" fill="#021734"/>
<path d="M72.0921 41.2099V36.15H73.6382C74.849 36.15 76.4822 36.7069 76.4822 38.6724C76.4822 40.7177 74.849 41.2088 73.6382 41.2088H72.0921V41.2099ZM72.4852 40.8634H73.6589C74.592 40.8634 76.0728 40.5018 76.0728 38.7026C76.0728 36.8882 74.5931 36.4986 73.6589 36.4986H72.4852V40.8634Z" fill="#021734"/>
<path d="M80.7396 41.2099L80.1266 39.6416H77.6909L77.0713 41.2099H76.6554L78.624 36.3313C78.6828 36.1651 78.784 36.1068 78.9158 36.1068C79.0399 36.1068 79.1423 36.1651 79.2 36.3313L81.1544 41.2099H80.7396ZM77.8226 39.3092H79.9959L78.9169 36.5623L77.8226 39.3092Z" fill="#021734"/>
<path d="M87.2877 41.2099L86.6747 39.6416H84.239L83.6195 41.2099H83.2036L85.1721 36.3313C85.2309 36.1651 85.3322 36.1068 85.464 36.1068C85.5881 36.1068 85.6904 36.1651 85.7481 36.3313L87.7026 41.2099H87.2877ZM84.3708 39.3092H86.5441L85.465 36.5623L84.3708 39.3092Z" fill="#021734"/>
<path d="M87.9954 39.5833H88.4114C88.4114 40.4792 89.0309 40.9346 90.001 40.9346C90.8035 40.9346 91.4448 40.6238 91.4448 39.8726C91.4448 38.9983 90.5846 38.8537 89.7974 38.6443C88.8131 38.3842 88.2077 38.0809 88.2077 37.3005C88.2077 36.477 88.8861 36.0787 89.8922 36.0787C91.1312 36.0787 91.6571 36.6713 91.6571 37.4009H91.2488C91.2488 36.7576 90.6805 36.4252 89.8638 36.4252C89.2879 36.4252 88.6248 36.5839 88.6248 37.2563C88.6248 37.9427 89.2737 38.109 89.9586 38.2903C90.9211 38.5364 91.8618 38.7598 91.8618 39.8078C91.8618 40.6465 91.2565 41.2822 89.9804 41.2822C88.6803 41.2822 87.9954 40.6313 87.9954 39.5833Z" fill="#021734"/>
<path d="M92.4139 39.5833H92.8299C92.8299 40.4792 93.4494 40.9346 94.4196 40.9346C95.222 40.9346 95.8633 40.6238 95.8633 39.8726C95.8633 38.9983 95.0032 38.8537 94.2159 38.6443C93.2316 38.3842 92.6263 38.0809 92.6263 37.3005C92.6263 36.477 93.3046 36.0787 94.3107 36.0787C95.5498 36.0787 96.0757 36.6713 96.0757 37.4009H95.6673C95.6673 36.7576 95.099 36.4252 94.2824 36.4252C93.7064 36.4252 93.0433 36.5839 93.0433 37.2563C93.0433 37.9427 93.6922 38.109 94.3771 38.2903C95.3396 38.5364 96.2804 38.7598 96.2804 39.8078C96.2804 40.6465 95.675 41.2822 94.3989 41.2822C93.0988 41.2822 92.4139 40.6313 92.4139 39.5833Z" fill="#021734"/>
<path d="M97.7361 36.1511V41.211H97.3419V36.1511H97.7361Z" fill="#021734"/>
<path d="M98.8303 39.5833H99.2463C99.2463 40.4792 99.8658 40.9346 100.836 40.9346C101.638 40.9346 102.28 40.6238 102.28 39.8726C102.28 38.9983 101.42 38.8537 100.632 38.6443C99.648 38.3842 99.0426 38.0809 99.0426 37.3005C99.0426 36.477 99.721 36.0787 100.727 36.0787C101.966 36.0787 102.491 36.6713 102.491 37.4009H102.083C102.083 36.7576 101.514 36.4252 100.698 36.4252C100.122 36.4252 99.4586 36.5839 99.4586 37.2563C99.4586 37.9427 100.108 38.109 100.792 38.2903C101.755 38.5364 102.696 38.7598 102.696 39.8078C102.696 40.6465 102.09 41.2822 100.814 41.2822C99.5152 41.2822 98.8303 40.6313 98.8303 39.5833Z" fill="#021734"/>
<path d="M104.803 41.2099L104.795 36.4975H103.14V36.1511H106.844V36.4975H105.197L105.189 41.2099H104.803Z" fill="#021734"/>
<path d="M108.258 36.1511V41.211H107.864V36.1511H108.258Z" fill="#021734"/>
<path d="M109.789 41.2099V36.15H111.335C112.546 36.15 114.18 36.7069 114.18 38.6724C114.18 40.7177 112.546 41.2088 111.335 41.2088H109.789V41.2099ZM110.184 40.8634H111.357C112.29 40.8634 113.771 40.5018 113.771 38.7026C113.771 36.8882 112.291 36.4986 111.357 36.4986H110.184V40.8634Z" fill="#021734"/>
<path d="M118.438 41.2099L117.826 39.6416H115.39L114.771 41.2099H114.355L116.323 36.3313C116.382 36.1651 116.484 36.1068 116.615 36.1068C116.739 36.1068 116.842 36.1651 116.899 36.3313L118.854 41.2099H118.438ZM115.521 39.3092H117.694L116.615 36.5623L115.521 39.3092Z" fill="#021734"/>
<path d="M125.584 41.2099H125.081L124.089 40.082L124.053 40.2266C123.718 40.8051 123.375 41.253 122.58 41.253C121.734 41.253 121.15 40.7037 121.15 39.8359C121.15 38.9541 121.791 38.4414 122.608 38.3907L122.476 38.2385C122.257 37.9859 122.017 37.6028 122.017 37.1473C122.017 36.3961 122.652 36.1068 123.293 36.1068C123.912 36.1068 124.453 36.4101 124.453 37.1548H124.052C124.052 36.7576 123.811 36.4252 123.271 36.4252C122.812 36.4252 122.425 36.6637 122.425 37.1548C122.425 37.5671 122.68 37.9061 122.877 38.123L124.094 39.511L125.122 37.7182H125.538L124.335 39.7927L125.584 41.2099ZM123.892 39.8586L122.842 38.6583C122.026 38.6659 121.558 39.1494 121.558 39.8219C121.558 40.5008 122.01 40.9131 122.602 40.9131C123.213 40.9131 123.469 40.5299 123.768 40.0172L123.892 39.8586Z" fill="#021734"/>
<path d="M130.665 38.7673H133.101C133.042 40.2708 132.051 41.2822 130.505 41.2822C128.916 41.2822 127.91 40.205 127.91 38.6734C127.91 37.1559 128.916 36.0787 130.476 36.0787C131.701 36.0787 132.656 36.722 132.918 37.8499H132.496C132.218 36.939 131.46 36.4263 130.476 36.4263C129.207 36.4263 128.318 37.2865 128.318 38.681C128.318 40.1046 129.207 40.9357 130.513 40.9357C131.73 40.9357 132.547 40.1985 132.671 39.1138H130.665V38.7673Z" fill="#021734"/>
<path d="M137.541 36.4975H134.515V38.4414H137.257V38.7878H134.515V40.8623H137.541V41.2088H134.362C134.224 41.2088 134.121 41.1073 134.121 40.9702V36.1489H137.541V36.4975Z" fill="#021734"/>
<path d="M138.198 39.5833H138.614C138.614 40.4792 139.233 40.9346 140.203 40.9346C141.006 40.9346 141.647 40.6238 141.647 39.8726C141.647 38.9983 140.787 38.8537 140 38.6443C139.016 38.3842 138.41 38.0809 138.41 37.3005C138.41 36.477 139.088 36.0787 140.095 36.0787C141.334 36.0787 141.858 36.6713 141.858 37.4009H141.45C141.45 36.7576 140.882 36.4252 140.065 36.4252C139.489 36.4252 138.826 36.5839 138.826 37.2563C138.826 37.9427 139.475 38.109 140.16 38.2903C141.122 38.5364 142.063 38.7598 142.063 39.8078C142.063 40.6465 141.458 41.2822 140.182 41.2822C138.884 41.2822 138.198 40.6313 138.198 39.5833Z" fill="#021734"/>
<path d="M144.17 41.2099L144.162 36.4975H142.507V36.1511H146.212V36.4975H144.564L144.557 41.2099H144.17Z" fill="#021734"/>
<path d="M150.003 41.2098L149.391 39.6416H146.955L146.336 41.2098H145.92L147.888 36.3313C147.947 36.1651 148.048 36.1068 148.18 36.1068C148.304 36.1068 148.407 36.1651 148.464 36.3313L150.419 41.2098H150.003ZM147.087 39.3091H149.26L148.181 36.5623L147.087 39.3091ZM147.138 35.457C147.079 34.9659 147.292 34.6616 147.722 34.6616C148.014 34.6616 148.174 34.8278 148.305 34.9724C148.408 35.0803 148.502 35.1969 148.67 35.1969C148.903 35.1969 148.948 34.9951 148.962 34.7123H149.188C149.247 35.2034 149.086 35.5078 148.685 35.5078C148.415 35.5078 148.255 35.3631 148.131 35.2185C148.022 35.0954 147.92 34.9724 147.723 34.9724C147.46 34.9724 147.388 35.1742 147.373 35.457H147.138Z" fill="#021734"/>
<path d="M150.594 38.6734C150.594 37.1559 151.6 36.0787 153.153 36.0787C154.706 36.0787 155.705 37.1559 155.705 38.6734C155.705 40.2061 154.707 41.2822 153.153 41.2822C151.6 41.2822 150.594 40.205 150.594 38.6734ZM155.297 38.6875C155.297 37.293 154.421 36.4252 153.153 36.4252C151.884 36.4252 151.002 37.293 151.002 38.6875C151.002 40.0971 151.884 40.9357 153.153 40.9357C154.422 40.9357 155.297 40.0971 155.297 38.6875Z" fill="#021734"/>
<path d="M158.63 41.2099V36.15H160.176C161.387 36.15 163.02 36.7069 163.02 38.6724C163.02 40.7177 161.387 41.2088 160.176 41.2088H158.63V41.2099ZM159.024 40.8634H160.198C161.131 40.8634 162.611 40.5018 162.611 38.7026C162.611 36.8882 161.132 36.4986 160.198 36.4986H159.024V40.8634Z" fill="#021734"/>
<path d="M167.533 36.4975H164.507V38.4414H167.249V38.7878H164.507V40.8623H167.533V41.2088H164.354C164.215 41.2088 164.113 41.1073 164.113 40.9702V36.1489H167.533V36.4975Z" fill="#021734"/>
<path d="M173.906 41.2099L172.381 38.9832H170.851V41.2099H170.456V36.15H172.63C173.716 36.15 174.3 36.7209 174.3 37.5736C174.3 38.3691 173.789 38.9109 172.834 38.9756L174.365 41.2088H173.906V41.2099ZM170.851 36.4975V38.6367H172.687C173.373 38.6367 173.891 38.2752 173.891 37.5887C173.891 36.8871 173.373 36.4975 172.687 36.4975H170.851Z" fill="#021734"/>
<path d="M175.926 36.1511V41.211H175.531V36.1511H175.926Z" fill="#021734"/>
<path d="M177.019 39.5833H177.435C177.435 40.4792 178.054 40.9346 179.024 40.9346C179.827 40.9346 180.468 40.6238 180.468 39.8726C180.468 38.9983 179.608 38.8537 178.821 38.6443C177.836 38.3842 177.231 38.0809 177.231 37.3005C177.231 36.477 177.909 36.0787 178.916 36.0787C180.155 36.0787 180.681 36.6713 180.681 37.4009H180.272C180.272 36.7576 179.704 36.4252 178.887 36.4252C178.311 36.4252 177.648 36.5839 177.648 37.2563C177.648 37.9427 178.297 38.109 178.982 38.2903C179.944 38.5364 180.885 38.7598 180.885 39.8078C180.885 40.6465 180.28 41.2822 179.004 41.2822C177.705 41.2822 177.019 40.6313 177.019 39.5833Z" fill="#021734"/>
<path d="M181.511 38.6734C181.511 37.1559 182.517 36.0787 184.07 36.0787C185.368 36.0787 186.272 36.8235 186.542 37.9578H186.119C185.864 36.9962 185.091 36.4252 184.07 36.4252C182.802 36.4252 181.92 37.293 181.92 38.6875C181.92 40.0971 182.809 40.9357 184.07 40.9357C185.098 40.9357 185.871 40.3723 186.126 39.4106H186.534C186.272 40.545 185.36 41.2822 184.07 41.2822C182.517 41.2822 181.511 40.205 181.511 38.6734Z" fill="#021734"/>
<path d="M187.198 38.6734C187.198 37.1559 188.204 36.0787 189.757 36.0787C191.31 36.0787 192.309 37.1559 192.309 38.6734C192.309 40.2061 191.311 41.2822 189.757 41.2822C188.204 41.2822 187.198 40.205 187.198 38.6734ZM191.902 38.6875C191.902 37.293 191.027 36.4252 189.758 36.4252C188.49 36.4252 187.608 37.293 187.608 38.6875C187.608 40.0971 188.49 40.9357 189.758 40.9357C191.027 40.9357 191.902 40.0971 191.902 38.6875Z" fill="#021734"/>
<path d="M9.63173 9.4787H0V33.1764H9.63173V9.4787Z" fill="#0065D8"/>
<path d="M0 9.47866H28.6872V0H9.56205L0 9.47866Z" fill="#CD2133"/>
<path d="M0 33.1763H28.7591V42.655H9.63173L0 33.1763Z" fill="#591790"/>
<path d="M38.2439 9.47866L28.6818 0V18.9584H19.0817V33.1764L38.2069 18.9584H38.2439V9.47866Z" fill="#FF7300"/>
</svg>
